<?xml version="1.0" standalone="no"?>
<!DOCTYPE svg PUBLIC "-//W3C//DTD SVG 1.1//EN" "http://www.w3.org/Graphics/SVG/1.1/DTD/svg11.dtd">
<svg version="1.1" xmlns="http://www.w3.org/2000/svg" viewBox="0 0 591.3024704288691 592.2429119281965" width="591.3024704288691" height="592.2429119281965"><!-- svg-source:excalidraw --><metadata></metadata><defs><style class="style-fonts">
      </style></defs><g stroke-linecap="round" transform="translate(10 391.8087554378184) rotate(0 95.21707824518899 95.21707824518904)"><path d="M0 0 L190.43 0 L190.43 190.43 L0 190.43" stroke="none" stroke-width="0" fill="#ffc9c9"></path><path d="M0 0 C49.29 0, 98.57 0, 190.43 0 M190.43 0 C190.43 63.34, 190.43 126.69, 190.43 190.43 M190.43 190.43 C140.5 190.43, 90.56 190.43, 0 190.43 M0 190.43 C0 144.72, 0 99.02, 0 0" stroke="#e03131" stroke-width="4.5" fill="none" stroke-dasharray="8 12"></path></g><g stroke-linecap="round" transform="translate(200.43415633037148 391.4952747189941) rotate(0 95.21707824518899 95.21707824518904)"><path d="M0 0 L190.43 0 L190.43 190.43 L0 190.43" stroke="none" stroke-width="0" fill="#ffc9c9"></path><path d="M0 0 C50.14 0, 100.28 0, 190.43 0 M190.43 0 C190.43 56.23, 190.43 112.47, 190.43 190.43 M190.43 190.43 C131.59 190.43, 72.75 190.43, 0 190.43 M0 190.43 C0 138.72, 0 87, 0 0" stroke="#e03131" stroke-width="4.5" fill="none" stroke-dasharray="8 12"></path></g><g stroke-linecap="round" transform="translate(390.86831199505286 391.49527488051126) rotate(0 95.21707824518899 95.21707824518904)"><path d="M0 0 L190.43 0 L190.43 190.43 L0 190.43" stroke="none" stroke-width="0" fill="#ffc9c9"></path><path d="M0 0 C59.59 0, 119.19 0, 190.43 0 M190.43 0 C190.43 58.9, 190.43 117.8, 190.43 190.43 M190.43 190.43 C121.81 190.43, 53.18 190.43, 0 190.43 M0 190.43 C0 120.58, 0 50.72, 0 0" stroke="#e03131" stroke-width="4.5" fill="none" stroke-dasharray="8 12"></path></g><g stroke-linecap="round" transform="translate(10.000000186591024 201.0611183443193) rotate(0 95.21707824518899 95.21707824518904)"><path d="M0 0 L190.43 0 L190.43 190.43 L0 190.43" stroke="none" stroke-width="0" fill="#ffc9c9"></path><path d="M0 0 C62.51 0, 125.03 0, 190.43 0 M190.43 0 C190.43 75, 190.43 150.01, 190.43 190.43 M190.43 190.43 C120.7 190.43, 50.97 190.43, 0 190.43 M0 190.43 C0 127.31, 0 64.18, 0 0" stroke="#e03131" stroke-width="4.5" fill="none" stroke-dasharray="8 12"></path></g><g stroke-linecap="round" transform="translate(390.868312181643 200.74763778701254) rotate(0 95.21707824518899 95.21707824518904)"><path d="M0 0 L190.43 0 L190.43 190.43 L0 190.43" stroke="none" stroke-width="0" fill="#ffc9c9"></path><path d="M0 0 C44.63 0, 89.25 0, 190.43 0 M190.43 0 C190.43 42.98, 190.43 85.96, 190.43 190.43 M190.43 190.43 C133.7 190.43, 76.97 190.43, 0 190.43 M0 190.43 C0 133.97, 0 77.5, 0 0" stroke="#e03131" stroke-width="4.5" fill="none" stroke-dasharray="8 12"></path></g><g stroke-linecap="round" transform="translate(10.000000397707481 10.626961116124221) rotate(0 95.21707824518899 95.21707824518904)"><path d="M0 0 L190.43 0 L190.43 190.43 L0 190.43" stroke="none" stroke-width="0" fill="#ffc9c9"></path><path d="M0 0 C45.95 0, 91.91 0, 190.43 0 M190.43 0 C190.43 49.58, 190.43 99.16, 190.43 190.43 M190.43 190.43 C131.43 190.43, 72.43 190.43, 0 190.43 M0 190.43 C0 147.95, 0 105.47, 0 0" stroke="#e03131" stroke-width="4.5" fill="none" stroke-dasharray="8 12"></path></g><g stroke-linecap="round" transform="translate(200.43415827381068 10.313480397298463) rotate(0 95.21707824518899 95.21707824518904)"><path d="M0 0 L190.43 0 L190.43 190.43 L0 190.43" stroke="none" stroke-width="0" fill="#ffc9c9"></path><path d="M0 0 C43.61 0, 87.22 0, 190.43 0 M190.43 0 C190.43 48.68, 190.43 97.37, 190.43 190.43 M190.43 190.43 C127.74 190.43, 65.04 190.43, 0 190.43 M0 190.43 C0 137.63, 0 84.83, 0 0" stroke="#e03131" stroke-width="4.5" fill="none" stroke-dasharray="8 12"></path></g><g stroke-linecap="round" transform="translate(390.86831393849116 10) rotate(0 95.21707824518899 95.21707824518904)"><path d="M0 0 L190.43 0 L190.43 190.43 L0 190.43" stroke="none" stroke-width="0" fill="#ffc9c9"></path><path d="M0 0 C40.84 0, 81.69 0, 190.43 0 M190.43 0 C190.43 63.03, 190.43 126.06, 190.43 190.43 M190.43 190.43 C117.95 190.43, 45.46 190.43, 0 190.43 M0 190.43 C0 114.89, 0 39.35, 0 0" stroke="#e03131" stroke-width="4.5" fill="none" stroke-dasharray="8 12"></path></g><g stroke-linecap="round" transform="translate(199.84892520590074 200.16240631443338) rotate(0 95.80230955625075 95.80230955625058)"><path d="M0 0 L191.6 0 L191.6 191.6 L0 191.6" stroke="none" stroke-width="0" fill="#b2f2bb"></path><path d="M0 0 C40.81 0, 81.62 0, 191.6 0 M0 0 C59.07 0, 118.13 0, 191.6 0 M191.6 0 C191.6 41.77, 191.6 83.53, 191.6 191.6 M191.6 0 C191.6 43.96, 191.6 87.91, 191.6 191.6 M191.6 191.6 C139.04 191.6, 86.47 191.6, 0 191.6 M191.6 191.6 C138.95 191.6, 86.29 191.6, 0 191.6 M0 191.6 C0 121.02, 0 50.43, 0 0 M0 191.6 C0 149.49, 0 107.38, 0 0" stroke="#2f9e44" stroke-width="4" fill="none"></path></g><g stroke-linecap="round" transform="translate(319.7836579102095 247.08609046078834) rotate(0 25.23697789338985 25.23697789338962)"><path d="M50.47 25.24 C50.47 26.7, 50.34 28.18, 50.09 29.62 C49.84 31.06, 49.45 32.5, 48.95 33.87 C48.45 35.24, 47.82 36.59, 47.09 37.86 C46.36 39.12, 45.51 40.34, 44.57 41.46 C43.63 42.58, 42.58 43.63, 41.46 44.57 C40.34 45.51, 39.12 46.36, 37.86 47.09 C36.59 47.82, 35.24 48.45, 33.87 48.95 C32.5 49.45, 31.06 49.84, 29.62 50.09 C28.18 50.34, 26.7 50.47, 25.24 50.47 C23.78 50.47, 22.29 50.34, 20.85 50.09 C19.42 49.84, 17.98 49.45, 16.61 48.95 C15.23 48.45, 13.88 47.82, 12.62 47.09 C11.35 46.36, 10.13 45.51, 9.01 44.57 C7.9 43.63, 6.84 42.58, 5.9 41.46 C4.97 40.34, 4.11 39.12, 3.38 37.86 C2.65 36.59, 2.02 35.24, 1.52 33.87 C1.02 32.5, 0.64 31.06, 0.38 29.62 C0.13 28.18, 0 26.7, 0 25.24 C0 23.78, 0.13 22.29, 0.38 20.85 C0.64 19.42, 1.02 17.98, 1.52 16.61 C2.02 15.23, 2.65 13.88, 3.38 12.62 C4.11 11.35, 4.97 10.13, 5.9 9.01 C6.84 7.9, 7.9 6.84, 9.01 5.9 C10.13 4.97, 11.35 4.11, 12.62 3.38 C13.88 2.65, 15.23 2.02, 16.61 1.52 C17.98 1.02, 19.42 0.64, 20.85 0.38 C22.29 0.13, 23.78 0, 25.24 0 C26.7 0, 28.18 0.13, 29.62 0.38 C31.06 0.64, 32.5 1.02, 33.87 1.52 C35.24 2.02, 36.59 2.65, 37.86 3.38 C39.12 4.11, 40.34 4.97, 41.46 5.9 C42.58 6.84, 43.63 7.9, 44.57 9.01 C45.51 10.13, 46.36 11.35, 47.09 12.62 C47.82 13.88, 48.45 15.23, 48.95 16.61 C49.45 17.98, 49.84 19.42, 50.09 20.85 C50.34 22.29, 50.41 24.51, 50.47 25.24 C50.54 25.97, 50.54 24.51, 50.47 25.24" stroke="none" stroke-width="0" fill="#0378fb"></path><path d="M50.47 25.24 C50.47 26.7, 50.34 28.18, 50.09 29.62 C49.84 31.06, 49.45 32.5, 48.95 33.87 C48.45 35.24, 47.82 36.59, 47.09 37.86 C46.36 39.12, 45.51 40.34, 44.57 41.46 C43.63 42.58, 42.58 43.63, 41.46 44.57 C40.34 45.51, 39.12 46.36, 37.86 47.09 C36.59 47.82, 35.24 48.45, 33.87 48.95 C32.5 49.45, 31.06 49.84, 29.62 50.09 C28.18 50.34, 26.7 50.47, 25.24 50.47 C23.78 50.47, 22.29 50.34, 20.85 50.09 C19.42 49.84, 17.98 49.45, 16.61 48.95 C15.23 48.45, 13.88 47.82, 12.62 47.09 C11.35 46.36, 10.13 45.51, 9.01 44.57 C7.9 43.63, 6.84 42.58, 5.9 41.46 C4.97 40.34, 4.11 39.12, 3.38 37.86 C2.65 36.59, 2.02 35.24, 1.52 33.87 C1.02 32.5, 0.64 31.06, 0.38 29.62 C0.13 28.18, 0 26.7, 0 25.24 C0 23.78, 0.13 22.29, 0.38 20.85 C0.64 19.42, 1.02 17.98, 1.52 16.61 C2.02 15.23, 2.65 13.88, 3.38 12.62 C4.11 11.35, 4.97 10.13, 5.9 9.01 C6.84 7.9, 7.9 6.84, 9.01 5.9 C10.13 4.97, 11.35 4.11, 12.62 3.38 C13.88 2.65, 15.23 2.02, 16.61 1.52 C17.98 1.02, 19.42 0.64, 20.85 0.38 C22.29 0.13, 23.78 0, 25.24 0 C26.7 0, 28.18 0.13, 29.62 0.38 C31.06 0.64, 32.5 1.02, 33.87 1.52 C35.24 2.02, 36.59 2.65, 37.86 3.38 C39.12 4.11, 40.34 4.97, 41.46 5.9 C42.58 6.84, 43.63 7.9, 44.57 9.01 C45.51 10.13, 46.36 11.35, 47.09 12.62 C47.82 13.88, 48.45 15.23, 48.95 16.61 C49.45 17.98, 49.84 19.42, 50.09 20.85 C50.34 22.29, 50.41 24.51, 50.47 25.24 C50.54 25.97, 50.54 24.51, 50.47 25.24" stroke="transparent" stroke-width="4" fill="none"></path></g><g stroke-linecap="round" transform="translate(309.49243662309345 229.22171807705797) rotate(0 35.52818836349388 34.878062428618705)"><path d="M45 8.75 C48.91 12.76, 52.82 16.78, 62.06 26.25 C71.06 35, 71.06 35, 62.06 43.75 C57.14 48.72, 52.23 53.69, 45 61.01 C36 69.76, 36 69.76, 27 61.01 C20.29 54.57, 13.58 48.14, 9 43.75 C0 35, 0 35, 9 26.25 C12.97 22.39, 16.94 18.53, 27 8.75 C36 0, 36 0, 45 8.75" stroke="none" stroke-width="0" fill="#0378fb"></path><path d="M45 8.75 C51.73 15.65, 58.45 22.55, 62.06 26.25 M45 8.75 C49.62 13.49, 54.24 18.23, 62.06 26.25 M62.06 26.25 C71.06 35, 71.06 35, 62.06 43.75 M62.06 26.25 C71.06 35, 71.06 35, 62.06 43.75 M62.06 43.75 C55.76 50.12, 49.46 56.5, 45 61.01 M62.06 43.75 C55.66 50.22, 49.27 56.69, 45 61.01 M45 61.01 C36 69.76, 36 69.76, 27 61.01 M45 61.01 C36 69.76, 36 69.76, 27 61.01 M27 61.01 C21.21 55.45, 15.41 49.9, 9 43.75 M27 61.01 C20.77 55.03, 14.53 49.05, 9 43.75 M9 43.75 C0 35, 0 35, 9 26.25 M9 43.75 C0 35, 0 35, 9 26.25 M9 26.25 C14.89 20.52, 20.78 14.8, 27 8.75 M9 26.25 C12.93 22.43, 16.86 18.61, 27 8.75 M27 8.75 C36 0, 36 0, 45 8.75 M27 8.75 C36 0, 36 0, 45 8.75" stroke="transparent" stroke-width="4" fill="none"></path></g><g stroke-linecap="round" transform="translate(323.5606666324911 211.5083482672893) rotate(0 21.257392814855393 22.9577440966558)"><path d="M42.51 22.96 C42.51 24.29, 42.41 25.64, 42.19 26.94 C41.98 28.25, 41.65 29.56, 41.23 30.81 C40.81 32.06, 40.28 33.29, 39.67 34.44 C39.05 35.59, 38.33 36.7, 37.54 37.71 C36.75 38.73, 35.86 39.69, 34.92 40.54 C33.98 41.4, 32.95 42.18, 31.89 42.84 C30.82 43.5, 29.68 44.08, 28.53 44.53 C27.37 44.99, 26.16 45.34, 24.95 45.57 C23.74 45.8, 22.49 45.92, 21.26 45.92 C20.03 45.92, 18.78 45.8, 17.57 45.57 C16.35 45.34, 15.14 44.99, 13.99 44.53 C12.83 44.08, 11.69 43.5, 10.63 42.84 C9.56 42.18, 8.54 41.4, 7.59 40.54 C6.65 39.69, 5.76 38.73, 4.97 37.71 C4.18 36.7, 3.46 35.59, 2.85 34.44 C2.23 33.29, 1.7 32.06, 1.28 30.81 C0.86 29.56, 0.54 28.25, 0.32 26.94 C0.11 25.64, 0 24.29, 0 22.96 C0 21.63, 0.11 20.28, 0.32 18.97 C0.54 17.66, 0.86 16.35, 1.28 15.11 C1.7 13.86, 2.23 12.63, 2.85 11.48 C3.46 10.33, 4.18 9.22, 4.97 8.2 C5.76 7.18, 6.65 6.23, 7.59 5.37 C8.54 4.52, 9.56 3.74, 10.63 3.08 C11.69 2.41, 12.83 1.84, 13.99 1.38 C15.14 0.93, 16.35 0.58, 17.57 0.35 C18.78 0.12, 20.03 0, 21.26 0 C22.49 0, 23.74 0.12, 24.95 0.35 C26.16 0.58, 27.37 0.93, 28.53 1.38 C29.68 1.84, 30.82 2.41, 31.89 3.08 C32.95 3.74, 33.98 4.52, 34.92 5.37 C35.86 6.23, 36.75 7.18, 37.54 8.2 C38.33 9.22, 39.05 10.33, 39.67 11.48 C40.28 12.63, 40.81 13.86, 41.23 15.11 C41.65 16.35, 41.98 17.66, 42.19 18.97 C42.41 20.28, 42.46 22.29, 42.51 22.96 C42.57 23.62, 42.57 22.29, 42.51 22.96" stroke="none" stroke-width="0" fill="#0253ae"></path><path d="M42.51 22.96 C42.51 24.29, 42.41 25.64, 42.19 26.94 C41.98 28.25, 41.65 29.56, 41.23 30.81 C40.81 32.06, 40.28 33.29, 39.67 34.44 C39.05 35.59, 38.33 36.7, 37.54 37.71 C36.75 38.73, 35.86 39.69, 34.92 40.54 C33.98 41.4, 32.95 42.18, 31.89 42.84 C30.82 43.5, 29.68 44.08, 28.53 44.53 C27.37 44.99, 26.16 45.34, 24.95 45.57 C23.74 45.8, 22.49 45.92, 21.26 45.92 C20.03 45.92, 18.78 45.8, 17.57 45.57 C16.35 45.34, 15.14 44.99, 13.99 44.53 C12.83 44.08, 11.69 43.5, 10.63 42.84 C9.56 42.18, 8.54 41.4, 7.59 40.54 C6.65 39.69, 5.76 38.73, 4.97 37.71 C4.18 36.7, 3.46 35.59, 2.85 34.44 C2.23 33.29, 1.7 32.06, 1.28 30.81 C0.86 29.56, 0.54 28.25, 0.32 26.94 C0.11 25.64, 0 24.29, 0 22.96 C0 21.63, 0.11 20.28, 0.32 18.97 C0.54 17.66, 0.86 16.35, 1.28 15.11 C1.7 13.86, 2.23 12.63, 2.85 11.48 C3.46 10.33, 4.18 9.22, 4.97 8.2 C5.76 7.18, 6.65 6.23, 7.59 5.37 C8.54 4.52, 9.56 3.74, 10.63 3.08 C11.69 2.41, 12.83 1.84, 13.99 1.38 C15.14 0.93, 16.35 0.58, 17.57 0.35 C18.78 0.12, 20.03 0, 21.26 0 C22.49 0, 23.74 0.12, 24.95 0.35 C26.16 0.58, 27.37 0.93, 28.53 1.38 C29.68 1.84, 30.82 2.41, 31.89 3.08 C32.95 3.74, 33.98 4.52, 34.92 5.37 C35.86 6.23, 36.75 7.18, 37.54 8.2 C38.33 9.22, 39.05 10.33, 39.67 11.48 C40.28 12.63, 40.81 13.86, 41.23 15.11 C41.65 16.35, 41.98 17.66, 42.19 18.97 C42.41 20.28, 42.46 22.29, 42.51 22.96 C42.57 23.62, 42.57 22.29, 42.51 22.96" stroke="transparent" stroke-width="4" fill="none"></path></g><g stroke-linecap="round" transform="translate(321.76856894482444 209.44918605102737) rotate(0 22.957744096655915 21.89597723500208)"><path d="M45.92 21.9 C45.92 23.16, 45.8 24.45, 45.57 25.7 C45.34 26.95, 44.99 28.19, 44.53 29.38 C44.08 30.58, 43.5 31.75, 42.84 32.84 C42.18 33.94, 41.4 35, 40.54 35.97 C39.69 36.94, 38.73 37.85, 37.71 38.67 C36.7 39.48, 35.59 40.22, 34.44 40.86 C33.29 41.49, 32.06 42.04, 30.81 42.47 C29.56 42.9, 28.25 43.24, 26.94 43.46 C25.64 43.68, 24.29 43.79, 22.96 43.79 C21.63 43.79, 20.28 43.68, 18.97 43.46 C17.66 43.24, 16.35 42.9, 15.11 42.47 C13.86 42.04, 12.63 41.49, 11.48 40.86 C10.33 40.22, 9.22 39.48, 8.2 38.67 C7.18 37.85, 6.23 36.94, 5.37 35.97 C4.52 35, 3.74 33.94, 3.08 32.84 C2.41 31.75, 1.84 30.58, 1.38 29.38 C0.93 28.19, 0.58 26.95, 0.35 25.7 C0.12 24.45, 0 23.16, 0 21.9 C0 20.63, 0.12 19.34, 0.35 18.09 C0.58 16.85, 0.93 15.6, 1.38 14.41 C1.84 13.22, 2.41 12.05, 3.08 10.95 C3.74 9.85, 4.52 8.79, 5.37 7.82 C6.23 6.85, 7.18 5.94, 8.2 5.12 C9.22 4.31, 10.33 3.57, 11.48 2.93 C12.63 2.3, 13.86 1.75, 15.11 1.32 C16.35 0.89, 17.66 0.55, 18.97 0.33 C20.28 0.11, 21.63 0, 22.96 0 C24.29 0, 25.64 0.11, 26.94 0.33 C28.25 0.55, 29.56 0.89, 30.81 1.32 C32.06 1.75, 33.29 2.3, 34.44 2.93 C35.59 3.57, 36.7 4.31, 37.71 5.12 C38.73 5.94, 39.69 6.85, 40.54 7.82 C41.4 8.79, 42.18 9.85, 42.84 10.95 C43.5 12.05, 44.08 13.22, 44.53 14.41 C44.99 15.6, 45.34 16.85, 45.57 18.09 C45.8 19.34, 45.86 21.26, 45.92 21.9 C45.97 22.53, 45.97 21.26, 45.92 21.9" stroke="none" stroke-width="0" fill="#0378fb"></path><path d="M45.92 21.9 C45.92 23.16, 45.8 24.45, 45.57 25.7 C45.34 26.95, 44.99 28.19, 44.53 29.38 C44.08 30.58, 43.5 31.75, 42.84 32.84 C42.18 33.94, 41.4 35, 40.54 35.97 C39.69 36.94, 38.73 37.85, 37.71 38.67 C36.7 39.48, 35.59 40.22, 34.44 40.86 C33.29 41.49, 32.06 42.04, 30.81 42.47 C29.56 42.9, 28.25 43.24, 26.94 43.46 C25.64 43.68, 24.29 43.79, 22.96 43.79 C21.63 43.79, 20.28 43.68, 18.97 43.46 C17.66 43.24, 16.35 42.9, 15.11 42.47 C13.86 42.04, 12.63 41.49, 11.48 40.86 C10.33 40.22, 9.22 39.48, 8.2 38.67 C7.18 37.85, 6.23 36.94, 5.37 35.97 C4.52 35, 3.74 33.94, 3.08 32.84 C2.41 31.75, 1.84 30.58, 1.38 29.38 C0.93 28.19, 0.58 26.95, 0.35 25.7 C0.12 24.45, 0 23.16, 0 21.9 C0 20.63, 0.12 19.34, 0.35 18.09 C0.58 16.85, 0.93 15.6, 1.38 14.41 C1.84 13.22, 2.41 12.05, 3.08 10.95 C3.74 9.85, 4.52 8.79, 5.37 7.82 C6.23 6.85, 7.18 5.94, 8.2 5.12 C9.22 4.31, 10.33 3.57, 11.48 2.93 C12.63 2.3, 13.86 1.75, 15.11 1.32 C16.35 0.89, 17.66 0.55, 18.97 0.33 C20.28 0.11, 21.63 0, 22.96 0 C24.29 0, 25.64 0.11, 26.94 0.33 C28.25 0.55, 29.56 0.89, 30.81 1.32 C32.06 1.75, 33.29 2.3, 34.44 2.93 C35.59 3.57, 36.7 4.31, 37.71 5.12 C38.73 5.94, 39.69 6.85, 40.54 7.82 C41.4 8.79, 42.18 9.85, 42.84 10.95 C43.5 12.05, 44.08 13.22, 44.53 14.41 C44.99 15.6, 45.34 16.85, 45.57 18.09 C45.8 19.34, 45.86 21.26, 45.92 21.9 C45.97 22.53, 45.97 21.26, 45.92 21.9" stroke="transparent" stroke-width="4" fill="none"></path></g><g stroke-linecap="round" transform="translate(222.23559385547014 334.37605785655444) rotate(0 25.23697789338985 25.23697789338962)"><path d="M50.47 25.24 C50.47 26.7, 50.34 28.18, 50.09 29.62 C49.84 31.06, 49.45 32.5, 48.95 33.87 C48.45 35.24, 47.82 36.59, 47.09 37.86 C46.36 39.12, 45.51 40.34, 44.57 41.46 C43.63 42.58, 42.58 43.63, 41.46 44.57 C40.34 45.51, 39.12 46.36, 37.86 47.09 C36.59 47.82, 35.24 48.45, 33.87 48.95 C32.5 49.45, 31.06 49.84, 29.62 50.09 C28.18 50.34, 26.7 50.47, 25.24 50.47 C23.78 50.47, 22.29 50.34, 20.85 50.09 C19.42 49.84, 17.98 49.45, 16.61 48.95 C15.23 48.45, 13.88 47.82, 12.62 47.09 C11.35 46.36, 10.13 45.51, 9.01 44.57 C7.9 43.63, 6.84 42.58, 5.9 41.46 C4.97 40.34, 4.11 39.12, 3.38 37.86 C2.65 36.59, 2.02 35.24, 1.52 33.87 C1.02 32.5, 0.64 31.06, 0.38 29.62 C0.13 28.18, 0 26.7, 0 25.24 C0 23.78, 0.13 22.29, 0.38 20.85 C0.64 19.42, 1.02 17.98, 1.52 16.61 C2.02 15.23, 2.65 13.88, 3.38 12.62 C4.11 11.35, 4.97 10.13, 5.9 9.01 C6.84 7.9, 7.9 6.84, 9.01 5.9 C10.13 4.97, 11.35 4.11, 12.62 3.38 C13.88 2.65, 15.23 2.02, 16.61 1.52 C17.98 1.02, 19.42 0.64, 20.85 0.38 C22.29 0.13, 23.78 0, 25.24 0 C26.7 0, 28.18 0.13, 29.62 0.38 C31.06 0.64, 32.5 1.02, 33.87 1.52 C35.24 2.02, 36.59 2.65, 37.86 3.38 C39.12 4.11, 40.34 4.97, 41.46 5.9 C42.58 6.84, 43.63 7.9, 44.57 9.01 C45.51 10.13, 46.36 11.35, 47.09 12.62 C47.82 13.88, 48.45 15.23, 48.95 16.61 C49.45 17.98, 49.84 19.42, 50.09 20.85 C50.34 22.29, 50.41 24.51, 50.47 25.24 C50.54 25.97, 50.54 24.51, 50.47 25.24" stroke="none" stroke-width="0" fill="#fa5252"></path><path d="M50.47 25.24 C50.47 26.7, 50.34 28.18, 50.09 29.62 C49.84 31.06, 49.45 32.5, 48.95 33.87 C48.45 35.24, 47.82 36.59, 47.09 37.86 C46.36 39.12, 45.51 40.34, 44.57 41.46 C43.63 42.58, 42.58 43.63, 41.46 44.57 C40.34 45.51, 39.12 46.36, 37.86 47.09 C36.59 47.82, 35.24 48.45, 33.87 48.95 C32.5 49.45, 31.06 49.84, 29.62 50.09 C28.18 50.34, 26.7 50.47, 25.24 50.47 C23.78 50.47, 22.29 50.34, 20.85 50.09 C19.42 49.84, 17.98 49.45, 16.61 48.95 C15.23 48.45, 13.88 47.82, 12.62 47.09 C11.35 46.36, 10.13 45.51, 9.01 44.57 C7.9 43.63, 6.84 42.58, 5.9 41.46 C4.97 40.34, 4.11 39.12, 3.38 37.86 C2.65 36.59, 2.02 35.24, 1.52 33.87 C1.02 32.5, 0.64 31.06, 0.38 29.62 C0.13 28.18, 0 26.7, 0 25.24 C0 23.78, 0.13 22.29, 0.38 20.85 C0.64 19.42, 1.02 17.98, 1.52 16.61 C2.02 15.23, 2.65 13.88, 3.38 12.62 C4.11 11.35, 4.97 10.13, 5.9 9.01 C6.84 7.9, 7.9 6.84, 9.01 5.9 C10.13 4.97, 11.35 4.11, 12.62 3.38 C13.88 2.65, 15.23 2.02, 16.61 1.52 C17.98 1.02, 19.42 0.64, 20.85 0.38 C22.29 0.13, 23.78 0, 25.24 0 C26.7 0, 28.18 0.13, 29.62 0.38 C31.06 0.64, 32.5 1.02, 33.87 1.52 C35.24 2.02, 36.59 2.65, 37.86 3.38 C39.12 4.11, 40.34 4.97, 41.46 5.9 C42.58 6.84, 43.63 7.9, 44.57 9.01 C45.51 10.13, 46.36 11.35, 47.09 12.62 C47.82 13.88, 48.45 15.23, 48.95 16.61 C49.45 17.98, 49.84 19.42, 50.09 20.85 C50.34 22.29, 50.41 24.51, 50.47 25.24 C50.54 25.97, 50.54 24.51, 50.47 25.24" stroke="transparent" stroke-width="4" fill="none"></path></g><g stroke-linecap="round" transform="translate(211.94437256835045 316.51168547282407) rotate(0 35.52818836349388 34.878062428618705)"><path d="M45 8.75 C51.13 15.04, 57.26 21.33, 62.06 26.25 C71.06 35, 71.06 35, 62.06 43.75 C56.02 49.85, 49.99 55.96, 45 61.01 C36 69.76, 36 69.76, 27 61.01 C22.05 56.26, 17.09 51.51, 9 43.75 C0 35, 0 35, 9 26.25 C13.81 21.58, 18.61 16.9, 27 8.75 C36 0, 36 0, 45 8.75" stroke="none" stroke-width="0" fill="#fa5252"></path><path d="M45 8.75 C48.75 12.6, 52.5 16.45, 62.06 26.25 M45 8.75 C50.16 14.04, 55.31 19.33, 62.06 26.25 M62.06 26.25 C71.06 35, 71.06 35, 62.06 43.75 M62.06 26.25 C71.06 35, 71.06 35, 62.06 43.75 M62.06 43.75 C55.52 50.36, 48.99 56.97, 45 61.01 M62.06 43.75 C55.72 50.16, 49.38 56.58, 45 61.01 M45 61.01 C36 69.76, 36 69.76, 27 61.01 M45 61.01 C36 69.76, 36 69.76, 27 61.01 M27 61.01 C20.65 54.92, 14.29 48.83, 9 43.75 M27 61.01 C20.13 54.42, 13.26 47.83, 9 43.75 M9 43.75 C0 35, 0 35, 9 26.25 M9 43.75 C0 35, 0 35, 9 26.25 M9 26.25 C13.12 22.25, 17.23 18.24, 27 8.75 M9 26.25 C14.65 20.76, 20.3 15.27, 27 8.75 M27 8.75 C36 0, 36 0, 45 8.75 M27 8.75 C36 0, 36 0, 45 8.75" stroke="transparent" stroke-width="4" fill="none"></path></g><g stroke-linecap="round" transform="translate(226.01260257775175 298.7983156630554) rotate(0 21.257392814855393 22.9577440966558)"><path d="M42.51 22.96 C42.51 24.29, 42.41 25.64, 42.19 26.94 C41.98 28.25, 41.65 29.56, 41.23 30.81 C40.81 32.06, 40.28 33.29, 39.67 34.44 C39.05 35.59, 38.33 36.7, 37.54 37.71 C36.75 38.73, 35.86 39.69, 34.92 40.54 C33.98 41.4, 32.95 42.18, 31.89 42.84 C30.82 43.5, 29.68 44.08, 28.53 44.53 C27.37 44.99, 26.16 45.34, 24.95 45.57 C23.74 45.8, 22.49 45.92, 21.26 45.92 C20.03 45.92, 18.78 45.8, 17.57 45.57 C16.35 45.34, 15.14 44.99, 13.99 44.53 C12.83 44.08, 11.69 43.5, 10.63 42.84 C9.56 42.18, 8.54 41.4, 7.59 40.54 C6.65 39.69, 5.76 38.73, 4.97 37.71 C4.18 36.7, 3.46 35.59, 2.85 34.44 C2.23 33.29, 1.7 32.06, 1.28 30.81 C0.86 29.56, 0.54 28.25, 0.32 26.94 C0.11 25.64, 0 24.29, 0 22.96 C0 21.63, 0.11 20.28, 0.32 18.97 C0.54 17.66, 0.86 16.35, 1.28 15.11 C1.7 13.86, 2.23 12.63, 2.85 11.48 C3.46 10.33, 4.18 9.22, 4.97 8.2 C5.76 7.18, 6.65 6.23, 7.59 5.37 C8.54 4.52, 9.56 3.74, 10.63 3.08 C11.69 2.41, 12.83 1.84, 13.99 1.38 C15.14 0.93, 16.35 0.58, 17.57 0.35 C18.78 0.12, 20.03 0, 21.26 0 C22.49 0, 23.74 0.12, 24.95 0.35 C26.16 0.58, 27.37 0.93, 28.53 1.38 C29.68 1.84, 30.82 2.41, 31.89 3.08 C32.95 3.74, 33.98 4.52, 34.92 5.37 C35.86 6.23, 36.75 7.18, 37.54 8.2 C38.33 9.22, 39.05 10.33, 39.67 11.48 C40.28 12.63, 40.81 13.86, 41.23 15.11 C41.65 16.35, 41.98 17.66, 42.19 18.97 C42.41 20.28, 42.46 22.29, 42.51 22.96 C42.57 23.62, 42.57 22.29, 42.51 22.96" stroke="none" stroke-width="0" fill="#e03131"></path><path d="M42.51 22.96 C42.51 24.29, 42.41 25.64, 42.19 26.94 C41.98 28.25, 41.65 29.56, 41.23 30.81 C40.81 32.06, 40.28 33.29, 39.67 34.44 C39.05 35.59, 38.33 36.7, 37.54 37.71 C36.75 38.73, 35.86 39.69, 34.92 40.54 C33.98 41.4, 32.95 42.18, 31.89 42.84 C30.82 43.5, 29.68 44.08, 28.53 44.53 C27.37 44.99, 26.16 45.34, 24.95 45.57 C23.74 45.8, 22.49 45.92, 21.26 45.92 C20.03 45.92, 18.78 45.8, 17.57 45.57 C16.35 45.34, 15.14 44.99, 13.99 44.53 C12.83 44.08, 11.69 43.5, 10.63 42.84 C9.56 42.18, 8.54 41.4, 7.59 40.54 C6.65 39.69, 5.76 38.73, 4.97 37.71 C4.18 36.7, 3.46 35.59, 2.85 34.44 C2.23 33.29, 1.7 32.06, 1.28 30.81 C0.86 29.56, 0.54 28.25, 0.32 26.94 C0.11 25.64, 0 24.29, 0 22.96 C0 21.63, 0.11 20.28, 0.32 18.97 C0.54 17.66, 0.86 16.35, 1.28 15.11 C1.7 13.86, 2.23 12.63, 2.85 11.48 C3.46 10.33, 4.18 9.22, 4.97 8.2 C5.76 7.18, 6.65 6.23, 7.59 5.37 C8.54 4.52, 9.56 3.74, 10.63 3.08 C11.69 2.41, 12.83 1.84, 13.99 1.38 C15.14 0.93, 16.35 0.58, 17.57 0.35 C18.78 0.12, 20.03 0, 21.26 0 C22.49 0, 23.74 0.12, 24.95 0.35 C26.16 0.58, 27.37 0.93, 28.53 1.38 C29.68 1.84, 30.82 2.41, 31.89 3.08 C32.95 3.74, 33.98 4.52, 34.92 5.37 C35.86 6.23, 36.75 7.18, 37.54 8.2 C38.33 9.22, 39.05 10.33, 39.67 11.48 C40.28 12.63, 40.81 13.86, 41.23 15.11 C41.65 16.35, 41.98 17.66, 42.19 18.97 C42.41 20.28, 42.46 22.29, 42.51 22.96 C42.57 23.62, 42.57 22.29, 42.51 22.96" stroke="transparent" stroke-width="4" fill="none"></path></g><g stroke-linecap="round" transform="translate(224.22050489008143 296.73915344679347) rotate(0 22.957744096655915 21.89597723500208)"><path d="M45.92 21.9 C45.92 23.16, 45.8 24.45, 45.57 25.7 C45.34 26.95, 44.99 28.19, 44.53 29.38 C44.08 30.58, 43.5 31.75, 42.84 32.84 C42.18 33.94, 41.4 35, 40.54 35.97 C39.69 36.94, 38.73 37.85, 37.71 38.67 C36.7 39.48, 35.59 40.22, 34.44 40.86 C33.29 41.49, 32.06 42.04, 30.81 42.47 C29.56 42.9, 28.25 43.24, 26.94 43.46 C25.64 43.68, 24.29 43.79, 22.96 43.79 C21.63 43.79, 20.28 43.68, 18.97 43.46 C17.66 43.24, 16.35 42.9, 15.11 42.47 C13.86 42.04, 12.63 41.49, 11.48 40.86 C10.33 40.22, 9.22 39.48, 8.2 38.67 C7.18 37.85, 6.23 36.94, 5.37 35.97 C4.52 35, 3.74 33.94, 3.08 32.84 C2.41 31.75, 1.84 30.58, 1.38 29.38 C0.93 28.19, 0.58 26.95, 0.35 25.7 C0.12 24.45, 0 23.16, 0 21.9 C0 20.63, 0.12 19.34, 0.35 18.09 C0.58 16.85, 0.93 15.6, 1.38 14.41 C1.84 13.22, 2.41 12.05, 3.08 10.95 C3.74 9.85, 4.52 8.79, 5.37 7.82 C6.23 6.85, 7.18 5.94, 8.2 5.12 C9.22 4.31, 10.33 3.57, 11.48 2.93 C12.63 2.3, 13.86 1.75, 15.11 1.32 C16.35 0.89, 17.66 0.55, 18.97 0.33 C20.28 0.11, 21.63 0, 22.96 0 C24.29 0, 25.64 0.11, 26.94 0.33 C28.25 0.55, 29.56 0.89, 30.81 1.32 C32.06 1.75, 33.29 2.3, 34.44 2.93 C35.59 3.57, 36.7 4.31, 37.71 5.12 C38.73 5.94, 39.69 6.85, 40.54 7.82 C41.4 8.79, 42.18 9.85, 42.84 10.95 C43.5 12.05, 44.08 13.22, 44.53 14.41 C44.99 15.6, 45.34 16.85, 45.57 18.09 C45.8 19.34, 45.86 21.26, 45.92 21.9 C45.97 22.53, 45.97 21.26, 45.92 21.9" stroke="none" stroke-width="0" fill="#fa5252"></path><path d="M45.92 21.9 C45.92 23.16, 45.8 24.45, 45.57 25.7 C45.34 26.95, 44.99 28.19, 44.53 29.38 C44.08 30.58, 43.5 31.75, 42.84 32.84 C42.18 33.94, 41.4 35, 40.54 35.97 C39.69 36.94, 38.73 37.85, 37.71 38.67 C36.7 39.48, 35.59 40.22, 34.44 40.86 C33.29 41.49, 32.06 42.04, 30.81 42.47 C29.56 42.9, 28.25 43.24, 26.94 43.46 C25.64 43.68, 24.29 43.79, 22.96 43.79 C21.63 43.79, 20.28 43.68, 18.97 43.46 C17.66 43.24, 16.35 42.9, 15.11 42.47 C13.86 42.04, 12.63 41.49, 11.48 40.86 C10.33 40.22, 9.22 39.48, 8.2 38.67 C7.18 37.85, 6.23 36.94, 5.37 35.97 C4.52 35, 3.74 33.94, 3.08 32.84 C2.41 31.75, 1.84 30.58, 1.38 29.38 C0.93 28.19, 0.58 26.95, 0.35 25.7 C0.12 24.45, 0 23.16, 0 21.9 C0 20.63, 0.12 19.34, 0.35 18.09 C0.58 16.85, 0.93 15.6, 1.38 14.41 C1.84 13.22, 2.41 12.05, 3.08 10.95 C3.74 9.85, 4.52 8.79, 5.37 7.82 C6.23 6.85, 7.18 5.94, 8.2 5.12 C9.22 4.31, 10.33 3.57, 11.48 2.93 C12.63 2.3, 13.86 1.75, 15.11 1.32 C16.35 0.89, 17.66 0.55, 18.97 0.33 C20.28 0.11, 21.63 0, 22.96 0 C24.29 0, 25.64 0.11, 26.94 0.33 C28.25 0.55, 29.56 0.89, 30.81 1.32 C32.06 1.75, 33.29 2.3, 34.44 2.93 C35.59 3.57, 36.7 4.31, 37.71 5.12 C38.73 5.94, 39.69 6.85, 40.54 7.82 C41.4 8.79, 42.18 9.85, 42.84 10.95 C43.5 12.05, 44.08 13.22, 44.53 14.41 C44.99 15.6, 45.34 16.85, 45.57 18.09 C45.8 19.34, 45.86 21.26, 45.92 21.9 C45.97 22.53, 45.97 21.26, 45.92 21.9" stroke="transparent" stroke-width="4" fill="none"></path></g><g stroke-linecap="round" transform="translate(517.1945342924291 188.07745040647114) rotate(0 25.23697789338985 25.23697789338962)"><path d="M50.47 25.24 C50.47 26.7, 50.34 28.18, 50.09 29.62 C49.84 31.06, 49.45 32.5, 48.95 33.87 C48.45 35.24, 47.82 36.59, 47.09 37.86 C46.36 39.12, 45.51 40.34, 44.57 41.46 C43.63 42.58, 42.58 43.63, 41.46 44.57 C40.34 45.51, 39.12 46.36, 37.86 47.09 C36.59 47.82, 35.24 48.45, 33.87 48.95 C32.5 49.45, 31.06 49.84, 29.62 50.09 C28.18 50.34, 26.7 50.47, 25.24 50.47 C23.78 50.47, 22.29 50.34, 20.85 50.09 C19.42 49.84, 17.98 49.45, 16.61 48.95 C15.23 48.45, 13.88 47.82, 12.62 47.09 C11.35 46.36, 10.13 45.51, 9.01 44.57 C7.9 43.63, 6.84 42.58, 5.9 41.46 C4.97 40.34, 4.11 39.12, 3.38 37.86 C2.65 36.59, 2.02 35.24, 1.52 33.87 C1.02 32.5, 0.64 31.06, 0.38 29.62 C0.13 28.18, 0 26.7, 0 25.24 C0 23.78, 0.13 22.29, 0.38 20.85 C0.64 19.42, 1.02 17.98, 1.52 16.61 C2.02 15.23, 2.65 13.88, 3.38 12.62 C4.11 11.35, 4.97 10.13, 5.9 9.01 C6.84 7.9, 7.9 6.84, 9.01 5.9 C10.13 4.97, 11.35 4.11, 12.62 3.38 C13.88 2.65, 15.23 2.02, 16.61 1.52 C17.98 1.02, 19.42 0.64, 20.85 0.38 C22.29 0.13, 23.78 0, 25.24 0 C26.7 0, 28.18 0.13, 29.62 0.38 C31.06 0.64, 32.5 1.02, 33.87 1.52 C35.24 2.02, 36.59 2.65, 37.86 3.38 C39.12 4.11, 40.34 4.97, 41.46 5.9 C42.58 6.84, 43.63 7.9, 44.57 9.01 C45.51 10.13, 46.36 11.35, 47.09 12.62 C47.82 13.88, 48.45 15.23, 48.95 16.61 C49.45 17.98, 49.84 19.42, 50.09 20.85 C50.34 22.29, 50.41 24.51, 50.47 25.24 C50.54 25.97, 50.54 24.51, 50.47 25.24" stroke="none" stroke-width="0" fill="#9775fa"></path><path d="M50.47 25.24 C50.47 26.7, 50.34 28.18, 50.09 29.62 C49.84 31.06, 49.45 32.5, 48.95 33.87 C48.45 35.24, 47.82 36.59, 47.09 37.86 C46.36 39.12, 45.51 40.34, 44.57 41.46 C43.63 42.58, 42.58 43.63, 41.46 44.57 C40.34 45.51, 39.12 46.36, 37.86 47.09 C36.59 47.82, 35.24 48.45, 33.87 48.95 C32.5 49.45, 31.06 49.84, 29.62 50.09 C28.18 50.34, 26.7 50.47, 25.24 50.47 C23.78 50.47, 22.29 50.34, 20.85 50.09 C19.42 49.84, 17.98 49.45, 16.61 48.95 C15.23 48.45, 13.88 47.82, 12.62 47.09 C11.35 46.36, 10.13 45.51, 9.01 44.57 C7.9 43.63, 6.84 42.58, 5.9 41.46 C4.97 40.34, 4.11 39.12, 3.38 37.86 C2.65 36.59, 2.02 35.24, 1.52 33.87 C1.02 32.5, 0.64 31.06, 0.38 29.62 C0.13 28.18, 0 26.7, 0 25.24 C0 23.78, 0.13 22.29, 0.38 20.85 C0.64 19.42, 1.02 17.98, 1.52 16.61 C2.02 15.23, 2.65 13.88, 3.38 12.62 C4.11 11.35, 4.97 10.13, 5.9 9.01 C6.84 7.9, 7.9 6.84, 9.01 5.9 C10.13 4.97, 11.35 4.11, 12.62 3.38 C13.88 2.65, 15.23 2.02, 16.61 1.52 C17.98 1.02, 19.42 0.64, 20.85 0.38 C22.29 0.13, 23.78 0, 25.24 0 C26.7 0, 28.18 0.13, 29.62 0.38 C31.06 0.64, 32.5 1.02, 33.87 1.52 C35.24 2.02, 36.59 2.65, 37.86 3.38 C39.12 4.11, 40.34 4.97, 41.46 5.9 C42.58 6.84, 43.63 7.9, 44.57 9.01 C45.51 10.13, 46.36 11.35, 47.09 12.62 C47.82 13.88, 48.45 15.23, 48.95 16.61 C49.45 17.98, 49.84 19.42, 50.09 20.85 C50.34 22.29, 50.41 24.51, 50.47 25.24 C50.54 25.97, 50.54 24.51, 50.47 25.24" stroke="transparent" stroke-width="4" fill="none"></path></g><g stroke-linecap="round" transform="translate(506.90331300531307 170.21307802274077) rotate(0 35.52818836349388 34.878062428618705)"><path d="M45 8.75 C50.2 14.08, 55.39 19.41, 62.06 26.25 C71.06 35, 71.06 35, 62.06 43.75 C56.27 49.6, 50.48 55.46, 45 61.01 C36 69.76, 36 69.76, 27 61.01 C19.94 54.24, 12.89 47.48, 9 43.75 C0 35, 0 35, 9 26.25 C13.69 21.69, 18.38 17.13, 27 8.75 C36 0, 36 0, 45 8.75" stroke="none" stroke-width="0" fill="#9775fa"></path><path d="M45 8.75 C49.22 13.08, 53.44 17.41, 62.06 26.25 M45 8.75 C48.46 12.3, 51.92 15.85, 62.06 26.25 M62.06 26.25 C71.06 35, 71.06 35, 62.06 43.75 M62.06 26.25 C71.06 35, 71.06 35, 62.06 43.75 M62.06 43.75 C55.36 50.52, 48.67 57.3, 45 61.01 M62.06 43.75 C56.84 49.03, 51.62 54.31, 45 61.01 M45 61.01 C36 69.76, 36 69.76, 27 61.01 M45 61.01 C36 69.76, 36 69.76, 27 61.01 M27 61.01 C21.35 55.59, 15.71 50.18, 9 43.75 M27 61.01 C21.82 56.04, 16.64 51.08, 9 43.75 M9 43.75 C0 35, 0 35, 9 26.25 M9 43.75 C0 35, 0 35, 9 26.25 M9 26.25 C12.82 22.54, 16.64 18.82, 27 8.75 M9 26.25 C15.13 20.29, 21.25 14.34, 27 8.75 M27 8.75 C36 0, 36 0, 45 8.75 M27 8.75 C36 0, 36 0, 45 8.75" stroke="transparent" stroke-width="4" fill="none"></path></g><g stroke-linecap="round" transform="translate(520.9715430147107 152.49970821297165) rotate(0 21.257392814855393 22.9577440966558)"><path d="M42.51 22.96 C42.51 24.29, 42.41 25.64, 42.19 26.94 C41.98 28.25, 41.65 29.56, 41.23 30.81 C40.81 32.06, 40.28 33.29, 39.67 34.44 C39.05 35.59, 38.33 36.7, 37.54 37.71 C36.75 38.73, 35.86 39.69, 34.92 40.54 C33.98 41.4, 32.95 42.18, 31.89 42.84 C30.82 43.5, 29.68 44.08, 28.53 44.53 C27.37 44.99, 26.16 45.34, 24.95 45.57 C23.74 45.8, 22.49 45.92, 21.26 45.92 C20.03 45.92, 18.78 45.8, 17.57 45.57 C16.35 45.34, 15.14 44.99, 13.99 44.53 C12.83 44.08, 11.69 43.5, 10.63 42.84 C9.56 42.18, 8.54 41.4, 7.59 40.54 C6.65 39.69, 5.76 38.73, 4.97 37.71 C4.18 36.7, 3.46 35.59, 2.85 34.44 C2.23 33.29, 1.7 32.06, 1.28 30.81 C0.86 29.56, 0.54 28.25, 0.32 26.94 C0.11 25.64, 0 24.29, 0 22.96 C0 21.63, 0.11 20.28, 0.32 18.97 C0.54 17.66, 0.86 16.35, 1.28 15.11 C1.7 13.86, 2.23 12.63, 2.85 11.48 C3.46 10.33, 4.18 9.22, 4.97 8.2 C5.76 7.18, 6.65 6.23, 7.59 5.37 C8.54 4.52, 9.56 3.74, 10.63 3.08 C11.69 2.41, 12.83 1.84, 13.99 1.38 C15.14 0.93, 16.35 0.58, 17.57 0.35 C18.78 0.12, 20.03 0, 21.26 0 C22.49 0, 23.74 0.12, 24.95 0.35 C26.16 0.58, 27.37 0.93, 28.53 1.38 C29.68 1.84, 30.82 2.41, 31.89 3.08 C32.95 3.74, 33.98 4.52, 34.92 5.37 C35.86 6.23, 36.75 7.18, 37.54 8.2 C38.33 9.22, 39.05 10.33, 39.67 11.48 C40.28 12.63, 40.81 13.86, 41.23 15.11 C41.65 16.35, 41.98 17.66, 42.19 18.97 C42.41 20.28, 42.46 22.29, 42.51 22.96 C42.57 23.62, 42.57 22.29, 42.51 22.96" stroke="none" stroke-width="0" fill="#7950f2"></path><path d="M42.51 22.96 C42.51 24.29, 42.41 25.64, 42.19 26.94 C41.98 28.25, 41.65 29.56, 41.23 30.81 C40.81 32.06, 40.28 33.29, 39.67 34.44 C39.05 35.59, 38.33 36.7, 37.54 37.71 C36.75 38.73, 35.86 39.69, 34.92 40.54 C33.98 41.4, 32.95 42.18, 31.89 42.84 C30.82 43.5, 29.68 44.08, 28.53 44.53 C27.37 44.99, 26.16 45.34, 24.95 45.57 C23.74 45.8, 22.49 45.92, 21.26 45.92 C20.03 45.92, 18.78 45.8, 17.57 45.57 C16.35 45.34, 15.14 44.99, 13.99 44.53 C12.83 44.08, 11.69 43.5, 10.63 42.84 C9.56 42.18, 8.54 41.4, 7.59 40.54 C6.65 39.69, 5.76 38.73, 4.97 37.71 C4.18 36.7, 3.46 35.59, 2.85 34.44 C2.23 33.29, 1.7 32.06, 1.28 30.81 C0.86 29.56, 0.54 28.25, 0.32 26.94 C0.11 25.64, 0 24.29, 0 22.96 C0 21.63, 0.11 20.28, 0.32 18.97 C0.54 17.66, 0.86 16.35, 1.28 15.11 C1.7 13.86, 2.23 12.63, 2.85 11.48 C3.46 10.33, 4.18 9.22, 4.97 8.2 C5.76 7.18, 6.65 6.23, 7.59 5.37 C8.54 4.52, 9.56 3.74, 10.63 3.08 C11.69 2.41, 12.83 1.84, 13.99 1.38 C15.14 0.93, 16.35 0.58, 17.57 0.35 C18.78 0.12, 20.03 0, 21.26 0 C22.49 0, 23.74 0.12, 24.95 0.35 C26.16 0.58, 27.37 0.93, 28.53 1.38 C29.68 1.84, 30.82 2.41, 31.89 3.08 C32.95 3.74, 33.98 4.52, 34.92 5.37 C35.86 6.23, 36.75 7.18, 37.54 8.2 C38.33 9.22, 39.05 10.33, 39.67 11.48 C40.28 12.63, 40.81 13.86, 41.23 15.11 C41.65 16.35, 41.98 17.66, 42.19 18.97 C42.41 20.28, 42.46 22.29, 42.51 22.96 C42.57 23.62, 42.57 22.29, 42.51 22.96" stroke="transparent" stroke-width="4" fill="none"></path></g><g stroke-linecap="round" transform="translate(519.179445327044 150.44054599670972) rotate(0 22.957744096655915 21.89597723500208)"><path d="M45.92 21.9 C45.92 23.16, 45.8 24.45, 45.57 25.7 C45.34 26.95, 44.99 28.19, 44.53 29.38 C44.08 30.58, 43.5 31.75, 42.84 32.84 C42.18 33.94, 41.4 35, 40.54 35.97 C39.69 36.94, 38.73 37.85, 37.71 38.67 C36.7 39.48, 35.59 40.22, 34.44 40.86 C33.29 41.49, 32.06 42.04, 30.81 42.47 C29.56 42.9, 28.25 43.24, 26.94 43.46 C25.64 43.68, 24.29 43.79, 22.96 43.79 C21.63 43.79, 20.28 43.68, 18.97 43.46 C17.66 43.24, 16.35 42.9, 15.11 42.47 C13.86 42.04, 12.63 41.49, 11.48 40.86 C10.33 40.22, 9.22 39.48, 8.2 38.67 C7.18 37.85, 6.23 36.94, 5.37 35.97 C4.52 35, 3.74 33.94, 3.08 32.84 C2.41 31.75, 1.84 30.58, 1.38 29.38 C0.93 28.19, 0.58 26.95, 0.35 25.7 C0.12 24.45, 0 23.16, 0 21.9 C0 20.63, 0.12 19.34, 0.35 18.09 C0.58 16.85, 0.93 15.6, 1.38 14.41 C1.84 13.22, 2.41 12.05, 3.08 10.95 C3.74 9.85, 4.52 8.79, 5.37 7.82 C6.23 6.85, 7.18 5.94, 8.2 5.12 C9.22 4.31, 10.33 3.57, 11.48 2.93 C12.63 2.3, 13.86 1.75, 15.11 1.32 C16.35 0.89, 17.66 0.55, 18.97 0.33 C20.28 0.11, 21.63 0, 22.96 0 C24.29 0, 25.64 0.11, 26.94 0.33 C28.25 0.55, 29.56 0.89, 30.81 1.32 C32.06 1.75, 33.29 2.3, 34.44 2.93 C35.59 3.57, 36.7 4.31, 37.71 5.12 C38.73 5.94, 39.69 6.85, 40.54 7.82 C41.4 8.79, 42.18 9.85, 42.84 10.95 C43.5 12.05, 44.08 13.22, 44.53 14.41 C44.99 15.6, 45.34 16.85, 45.57 18.09 C45.8 19.34, 45.86 21.26, 45.92 21.9 C45.97 22.53, 45.97 21.26, 45.92 21.9" stroke="none" stroke-width="0" fill="#9775fa"></path><path d="M45.92 21.9 C45.92 23.16, 45.8 24.45, 45.57 25.7 C45.34 26.95, 44.99 28.19, 44.53 29.38 C44.08 30.58, 43.5 31.75, 42.84 32.84 C42.18 33.94, 41.4 35, 40.54 35.97 C39.69 36.94, 38.73 37.85, 37.71 38.67 C36.7 39.48, 35.59 40.22, 34.44 40.86 C33.29 41.49, 32.06 42.04, 30.81 42.47 C29.56 42.9, 28.25 43.24, 26.94 43.46 C25.64 43.68, 24.29 43.79, 22.96 43.79 C21.63 43.79, 20.28 43.68, 18.97 43.46 C17.66 43.24, 16.35 42.9, 15.11 42.47 C13.86 42.04, 12.63 41.49, 11.48 40.86 C10.33 40.22, 9.22 39.48, 8.2 38.67 C7.18 37.85, 6.23 36.94, 5.37 35.97 C4.52 35, 3.74 33.94, 3.08 32.84 C2.41 31.75, 1.84 30.58, 1.38 29.38 C0.93 28.19, 0.58 26.95, 0.35 25.7 C0.12 24.45, 0 23.16, 0 21.9 C0 20.63, 0.12 19.34, 0.35 18.09 C0.58 16.85, 0.93 15.6, 1.38 14.41 C1.84 13.22, 2.41 12.05, 3.08 10.95 C3.74 9.85, 4.52 8.79, 5.37 7.82 C6.23 6.85, 7.18 5.94, 8.2 5.12 C9.22 4.31, 10.33 3.57, 11.48 2.93 C12.63 2.3, 13.86 1.75, 15.11 1.32 C16.35 0.89, 17.66 0.55, 18.97 0.33 C20.28 0.11, 21.63 0, 22.96 0 C24.29 0, 25.64 0.11, 26.94 0.33 C28.25 0.55, 29.56 0.89, 30.81 1.32 C32.06 1.75, 33.29 2.3, 34.44 2.93 C35.59 3.57, 36.7 4.31, 37.71 5.12 C38.73 5.94, 39.69 6.85, 40.54 7.82 C41.4 8.79, 42.18 9.85, 42.84 10.95 C43.5 12.05, 44.08 13.22, 44.53 14.41 C44.99 15.6, 45.34 16.85, 45.57 18.09 C45.8 19.34, 45.86 21.26, 45.92 21.9 C45.97 22.53, 45.97 21.26, 45.92 21.9" stroke="transparent" stroke-width="4" fill="none"></path></g><g stroke-linecap="round" transform="translate(311.50646453765603 510.3649391976659) rotate(0 32.32383952697455 25.229286410116913)"><path d="M41.25 6.5 C46.13 10.69, 51.02 14.88, 56.4 19.5 C64.65 26, 64.65 26, 56.4 32.5 C53.18 34.94, 49.96 37.37, 41.25 43.96 C33 50.46, 33 50.46, 24.75 43.96 C20.48 41, 16.22 38.03, 8.25 32.5 C0 26, 0 26, 8.25 19.5 C13.2 15.6, 18.16 11.69, 24.75 6.5 C33 0, 33 0, 41.25 6.5" stroke="none" stroke-width="0" fill="#ffd43b"></path><path d="M41.25 6.5 C46.87 11.32, 52.49 16.14, 56.4 19.5 M41.25 6.5 C45.38 10.04, 49.5 13.58, 56.4 19.5 M56.4 19.5 C64.65 26, 64.65 26, 56.4 32.5 M56.4 19.5 C64.65 26, 64.65 26, 56.4 32.5 M56.4 32.5 C51.33 36.34, 46.25 40.17, 41.25 43.96 M56.4 32.5 C51.69 36.06, 46.99 39.62, 41.25 43.96 M41.25 43.96 C33 50.46, 33 50.46, 24.75 43.96 M41.25 43.96 C33 50.46, 33 50.46, 24.75 43.96 M24.75 43.96 C20.46 40.98, 16.16 38, 8.25 32.5 M24.75 43.96 C18.35 39.51, 11.95 35.07, 8.25 32.5 M8.25 32.5 C0 26, 0 26, 8.25 19.5 M8.25 32.5 C0 26, 0 26, 8.25 19.5 M8.25 19.5 C13.89 15.05, 19.54 10.61, 24.75 6.5 M8.25 19.5 C14.02 14.96, 19.78 10.42, 24.75 6.5 M24.75 6.5 C33 0, 33 0, 41.25 6.5 M24.75 6.5 C33 0, 33 0, 41.25 6.5" stroke="transparent" stroke-width="4" fill="none"></path></g><g stroke-linecap="round" transform="translate(313.4445659328858 509.59344460742875) rotate(0 30.408072587091738 13.14326214421095)"><path d="M0 0 L60.82 0 L60.82 26.29 L0 26.29" stroke="none" stroke-width="0" fill="#ffd43b"></path><path d="M0 0 C14.96 0, 29.93 0, 60.82 0 M0 0 C17.6 0, 35.21 0, 60.82 0 M60.82 0 C60.82 9.62, 60.82 19.24, 60.82 26.29 M60.82 0 C60.82 9.7, 60.82 19.4, 60.82 26.29 M60.82 26.29 C48.04 26.29, 35.27 26.29, 0 26.29 M60.82 26.29 C38.18 26.29, 15.55 26.29, 0 26.29 M0 26.29 C0 19.45, 0 12.61, 0 0 M0 26.29 C0 16.09, 0 5.89, 0 0" stroke="transparent" stroke-width="4" fill="none"></path></g><g stroke-linecap="round" transform="translate(311.557884182449 484.04615320057144) rotate(0 32.41570467066185 25.49430612247869)"><path d="M41.25 6.5 C46.18 10.68, 51.12 14.87, 56.58 19.5 C64.83 26, 64.83 26, 56.58 32.5 C50.7 37.1, 44.81 41.7, 41.25 44.49 C33 50.99, 33 50.99, 24.75 44.49 C20.28 41.24, 15.8 37.99, 8.25 32.5 C0 26, 0 26, 8.25 19.5 C14.81 14.33, 21.37 9.16, 24.75 6.5 C33 0, 33 0, 41.25 6.5" stroke="none" stroke-width="0" fill="#ffec99"></path><path d="M41.25 6.5 C45.65 10.23, 50.06 13.97, 56.58 19.5 M41.25 6.5 C45.57 10.16, 49.89 13.83, 56.58 19.5 M56.58 19.5 C64.83 26, 64.83 26, 56.58 32.5 M56.58 19.5 C64.83 26, 64.83 26, 56.58 32.5 M56.58 32.5 C50.46 37.28, 44.34 42.07, 41.25 44.49 M56.58 32.5 C51.09 36.79, 45.6 41.09, 41.25 44.49 M41.25 44.49 C33 50.99, 33 50.99, 24.75 44.49 M41.25 44.49 C33 50.99, 33 50.99, 24.75 44.49 M24.75 44.49 C18.93 40.26, 13.1 36.03, 8.25 32.5 M24.75 44.49 C19.17 40.44, 13.59 36.38, 8.25 32.5 M8.25 32.5 C0 26, 0 26, 8.25 19.5 M8.25 32.5 C0 26, 0 26, 8.25 19.5 M8.25 19.5 C14.73 14.39, 21.21 9.29, 24.75 6.5 M8.25 19.5 C13.8 15.12, 19.36 10.75, 24.75 6.5 M24.75 6.5 C33 0, 33 0, 41.25 6.5 M24.75 6.5 C33 0, 33 0, 41.25 6.5" stroke="transparent" stroke-width="4" fill="none"></path></g><g stroke-linecap="round" transform="translate(141.56696240277142 471.79172331637164) rotate(0 18.535672754761435 13.332682552154608)"><path d="M37.07 13.33 C37.07 14.1, 36.98 14.89, 36.79 15.65 C36.6 16.41, 36.32 17.17, 35.95 17.89 C35.59 18.62, 35.12 19.33, 34.59 20 C34.05 20.67, 33.42 21.31, 32.73 21.9 C32.05 22.49, 31.27 23.05, 30.45 23.55 C29.63 24.04, 28.73 24.49, 27.8 24.88 C26.87 25.26, 25.88 25.6, 24.88 25.86 C23.87 26.13, 22.81 26.33, 21.75 26.46 C20.7 26.6, 19.61 26.67, 18.54 26.67 C17.46 26.67, 16.37 26.6, 15.32 26.46 C14.26 26.33, 13.2 26.13, 12.2 25.86 C11.19 25.6, 10.2 25.26, 9.27 24.88 C8.34 24.49, 7.44 24.04, 6.62 23.55 C5.8 23.05, 5.03 22.49, 4.34 21.9 C3.65 21.31, 3.02 20.67, 2.48 20 C1.95 19.33, 1.48 18.62, 1.12 17.89 C0.75 17.17, 0.47 16.41, 0.28 15.65 C0.1 14.89, 0 14.1, 0 13.33 C0 12.56, 0.1 11.78, 0.28 11.02 C0.47 10.26, 0.75 9.5, 1.12 8.77 C1.48 8.05, 1.95 7.33, 2.48 6.67 C3.02 6, 3.65 5.35, 4.34 4.76 C5.03 4.17, 5.8 3.62, 6.62 3.12 C7.44 2.62, 8.34 2.17, 9.27 1.79 C10.2 1.4, 11.19 1.07, 12.2 0.8 C13.2 0.54, 14.26 0.34, 15.32 0.2 C16.37 0.07, 17.46 0, 18.54 0 C19.61 0, 20.7 0.07, 21.75 0.2 C22.81 0.34, 23.87 0.54, 24.88 0.8 C25.88 1.07, 26.87 1.4, 27.8 1.79 C28.73 2.17, 29.63 2.62, 30.45 3.12 C31.27 3.62, 32.05 4.17, 32.73 4.76 C33.42 5.35, 34.05 6, 34.59 6.67 C35.12 7.33, 35.59 8.05, 35.95 8.77 C36.32 9.5, 36.6 10.26, 36.79 11.02 C36.98 11.78, 37.02 12.95, 37.07 13.33 C37.12 13.72, 37.12 12.95, 37.07 13.33" stroke="none" stroke-width="0" fill="#685c53"></path><path d="M37.07 13.33 C37.07 14.1, 36.98 14.89, 36.79 15.65 C36.6 16.41, 36.32 17.17, 35.95 17.89 C35.59 18.62, 35.12 19.33, 34.59 20 C34.05 20.67, 33.42 21.31, 32.73 21.9 C32.05 22.49, 31.27 23.05, 30.45 23.55 C29.63 24.04, 28.73 24.49, 27.8 24.88 C26.87 25.26, 25.88 25.6, 24.88 25.86 C23.87 26.13, 22.81 26.33, 21.75 26.46 C20.7 26.6, 19.61 26.67, 18.54 26.67 C17.46 26.67, 16.37 26.6, 15.32 26.46 C14.26 26.33, 13.2 26.13, 12.2 25.86 C11.19 25.6, 10.2 25.26, 9.27 24.88 C8.34 24.49, 7.44 24.04, 6.62 23.55 C5.8 23.05, 5.03 22.49, 4.34 21.9 C3.65 21.31, 3.02 20.67, 2.48 20 C1.95 19.33, 1.48 18.62, 1.12 17.89 C0.75 17.17, 0.47 16.41, 0.28 15.65 C0.1 14.89, 0 14.1, 0 13.33 C0 12.56, 0.1 11.78, 0.28 11.02 C0.47 10.26, 0.75 9.5, 1.12 8.77 C1.48 8.05, 1.95 7.33, 2.48 6.67 C3.02 6, 3.65 5.35, 4.34 4.76 C5.03 4.17, 5.8 3.62, 6.62 3.12 C7.44 2.62, 8.34 2.17, 9.27 1.79 C10.2 1.4, 11.19 1.07, 12.2 0.8 C13.2 0.54, 14.26 0.34, 15.32 0.2 C16.37 0.07, 17.46 0, 18.54 0 C19.61 0, 20.7 0.07, 21.75 0.2 C22.81 0.34, 23.87 0.54, 24.88 0.8 C25.88 1.07, 26.87 1.4, 27.8 1.79 C28.73 2.17, 29.63 2.62, 30.45 3.12 C31.27 3.62, 32.05 4.17, 32.73 4.76 C33.42 5.35, 34.05 6, 34.59 6.67 C35.12 7.33, 35.59 8.05, 35.95 8.77 C36.32 9.5, 36.6 10.26, 36.79 11.02 C36.98 11.78, 37.02 12.95, 37.07 13.33 C37.12 13.72, 37.12 12.95, 37.07 13.33" stroke="transparent" stroke-width="4" fill="none"></path></g><g stroke-linecap="round" transform="translate(141.56696231325532 414.83698746182176) rotate(0 18.535672767029155 35.14370915542878)"><path d="M0 0 L37.07 0 L37.07 70.29 L0 70.29" stroke="none" stroke-width="0" fill="#685c53"></path><path d="M0 0 C10.62 0, 21.25 0, 37.07 0 M0 0 C14.02 0, 28.03 0, 37.07 0 M37.07 0 C37.07 26.22, 37.07 52.45, 37.07 70.29 M37.07 0 C37.07 23.51, 37.07 47.03, 37.07 70.29 M37.07 70.29 C28.37 70.29, 19.67 70.29, 0 70.29 M37.07 70.29 C24.28 70.29, 11.49 70.29, 0 70.29 M0 70.29 C0 44.7, 0 19.12, 0 0 M0 70.29 C0 44.56, 0 18.84, 0 0" stroke="transparent" stroke-width="4" fill="none"></path></g><g stroke-linecap="round" transform="translate(107.26037469955463 375.3678646782025) rotate(0 53.2871367579487 47.300389450484886)"><path d="M67.5 12 C76.01 19.98, 84.51 27.97, 93.07 36 C106.57 48, 106.57 48, 93.07 60 C84.18 67.86, 75.28 75.73, 67.5 82.6 C54 94.6, 54 94.6, 40.5 82.6 C34.2 77.33, 27.9 72.06, 13.5 60 C0 48, 0 48, 13.5 36 C23.03 27.53, 32.57 19.05, 40.5 12 C54 0, 54 0, 67.5 12" stroke="none" stroke-width="0" fill="#099268"></path><path d="M67.5 12 C75.89 19.88, 84.29 27.76, 93.07 36 M67.5 12 C75.77 19.76, 84.04 27.52, 93.07 36 M93.07 36 C106.57 48, 106.57 48, 93.07 60 M93.07 36 C106.57 48, 106.57 48, 93.07 60 M93.07 60 C87.45 64.97, 81.83 69.93, 67.5 82.6 M93.07 60 C86.22 66.05, 79.38 72.11, 67.5 82.6 M67.5 82.6 C54 94.6, 54 94.6, 40.5 82.6 M67.5 82.6 C54 94.6, 54 94.6, 40.5 82.6 M40.5 82.6 C30.21 73.99, 19.92 65.37, 13.5 60 M40.5 82.6 C33.8 76.99, 27.1 71.39, 13.5 60 M13.5 60 C0 48, 0 48, 13.5 36 M13.5 60 C0 48, 0 48, 13.5 36 M13.5 36 C19.01 31.1, 24.52 26.21, 40.5 12 M13.5 36 C22.2 28.26, 30.91 20.53, 40.5 12 M40.5 12 C54 0, 54 0, 67.5 12 M40.5 12 C54 0, 54 0, 67.5 12" stroke="transparent" stroke-width="4" fill="none"></path></g><g stroke-linecap="round" transform="translate(122.26924240795688 346.8560447945499) rotate(0 38.89447758132519 43.01685682117926)"><path d="M48.75 11 C52.93 15.77, 57.11 20.53, 68.04 33 C77.79 44, 77.79 44, 68.04 55 C63.04 60.2, 58.03 65.39, 48.75 75.03 C39 86.03, 39 86.03, 29.25 75.03 C24.03 69.67, 18.82 64.32, 9.75 55 C0 44, 0 44, 9.75 33 C16.61 25.26, 23.48 17.51, 29.25 11 C39 0, 39 0, 48.75 11" stroke="none" stroke-width="0" fill="#099268"></path><path d="M48.75 11 C55.92 19.18, 63.1 27.37, 68.04 33 M48.75 11 C56.07 19.35, 63.4 27.7, 68.04 33 M68.04 33 C77.79 44, 77.79 44, 68.04 55 M68.04 33 C77.79 44, 77.79 44, 68.04 55 M68.04 55 C64 59.2, 59.95 63.4, 48.75 75.03 M68.04 55 C64.07 59.12, 60.11 63.24, 48.75 75.03 M48.75 75.03 C39 86.03, 39 86.03, 29.25 75.03 M48.75 75.03 C39 86.03, 39 86.03, 29.25 75.03 M29.25 75.03 C21.72 67.3, 14.19 59.56, 9.75 55 M29.25 75.03 C24.67 70.33, 20.09 65.62, 9.75 55 M9.75 55 C0 44, 0 44, 9.75 33 M9.75 55 C0 44, 0 44, 9.75 33 M9.75 33 C17.1 24.71, 24.45 16.41, 29.25 11 M9.75 33 C14.65 27.47, 19.56 21.94, 29.25 11 M29.25 11 C39 0, 39 0, 48.75 11 M29.25 11 C39 0, 39 0, 48.75 11" stroke="transparent" stroke-width="4" fill="none"></path></g><g stroke-linecap="round" transform="translate(130.56164352316318 450.8889219745745) rotate(0 30.057791206319052 13.332682552154608)"><path d="M60.12 13.33 C60.12 14.1, 59.96 14.89, 59.66 15.65 C59.36 16.41, 58.9 17.17, 58.3 17.89 C57.71 18.62, 56.96 19.33, 56.09 20 C55.22 20.67, 54.2 21.31, 53.08 21.9 C51.97 22.49, 50.71 23.05, 49.38 23.55 C48.05 24.04, 46.59 24.49, 45.09 24.88 C43.58 25.26, 41.97 25.6, 40.34 25.86 C38.7 26.13, 36.99 26.33, 35.28 26.46 C33.56 26.6, 31.8 26.67, 30.06 26.67 C28.32 26.67, 26.55 26.6, 24.84 26.46 C23.12 26.33, 21.41 26.13, 19.78 25.86 C18.14 25.6, 16.54 25.26, 15.03 24.88 C13.52 24.49, 12.07 24.04, 10.74 23.55 C9.4 23.05, 8.15 22.49, 7.03 21.9 C5.91 21.31, 4.9 20.67, 4.03 20 C3.16 19.33, 2.41 18.62, 1.81 17.89 C1.22 17.17, 0.76 16.41, 0.46 15.65 C0.15 14.89, 0 14.1, 0 13.33 C0 12.56, 0.15 11.78, 0.46 11.02 C0.76 10.26, 1.22 9.5, 1.81 8.77 C2.41 8.05, 3.16 7.33, 4.03 6.67 C4.9 6, 5.91 5.35, 7.03 4.76 C8.15 4.17, 9.4 3.62, 10.74 3.12 C12.07 2.62, 13.52 2.17, 15.03 1.79 C16.54 1.4, 18.14 1.07, 19.78 0.8 C21.41 0.54, 23.12 0.34, 24.84 0.2 C26.55 0.07, 28.32 0, 30.06 0 C31.8 0, 33.56 0.07, 35.28 0.2 C36.99 0.34, 38.7 0.54, 40.34 0.8 C41.97 1.07, 43.58 1.4, 45.09 1.79 C46.59 2.17, 48.05 2.62, 49.38 3.12 C50.71 3.62, 51.97 4.17, 53.08 4.76 C54.2 5.35, 55.22 6, 56.09 6.67 C56.96 7.33, 57.71 8.05, 58.3 8.77 C58.9 9.5, 59.36 10.26, 59.66 11.02 C59.96 11.78, 60.04 12.95, 60.12 13.33 C60.19 13.72, 60.19 12.95, 60.12 13.33" stroke="none" stroke-width="0" fill="#4f4141"></path><path d="M60.12 13.33 C60.12 14.1, 59.96 14.89, 59.66 15.65 C59.36 16.41, 58.9 17.17, 58.3 17.89 C57.71 18.62, 56.96 19.33, 56.09 20 C55.22 20.67, 54.2 21.31, 53.08 21.9 C51.97 22.49, 50.71 23.05, 49.38 23.55 C48.05 24.04, 46.59 24.49, 45.09 24.88 C43.58 25.26, 41.97 25.6, 40.34 25.86 C38.7 26.13, 36.99 26.33, 35.28 26.46 C33.56 26.6, 31.8 26.67, 30.06 26.67 C28.32 26.67, 26.55 26.6, 24.84 26.46 C23.12 26.33, 21.41 26.13, 19.78 25.86 C18.14 25.6, 16.54 25.26, 15.03 24.88 C13.52 24.49, 12.07 24.04, 10.74 23.55 C9.4 23.05, 8.15 22.49, 7.03 21.9 C5.91 21.31, 4.9 20.67, 4.03 20 C3.16 19.33, 2.41 18.62, 1.81 17.89 C1.22 17.17, 0.76 16.41, 0.46 15.65 C0.15 14.89, 0 14.1, 0 13.33 C0 12.56, 0.15 11.78, 0.46 11.02 C0.76 10.26, 1.22 9.5, 1.81 8.77 C2.41 8.05, 3.16 7.33, 4.03 6.67 C4.9 6, 5.91 5.35, 7.03 4.76 C8.15 4.17, 9.4 3.62, 10.74 3.12 C12.07 2.62, 13.52 2.17, 15.03 1.79 C16.54 1.4, 18.14 1.07, 19.78 0.8 C21.41 0.54, 23.12 0.34, 24.84 0.2 C26.55 0.07, 28.32 0, 30.06 0 C31.8 0, 33.56 0.07, 35.28 0.2 C36.99 0.34, 38.7 0.54, 40.34 0.8 C41.97 1.07, 43.58 1.4, 45.09 1.79 C46.59 2.17, 48.05 2.62, 49.38 3.12 C50.71 3.62, 51.97 4.17, 53.08 4.76 C54.2 5.35, 55.22 6, 56.09 6.67 C56.96 7.33, 57.71 8.05, 58.3 8.77 C58.9 9.5, 59.36 10.26, 59.66 11.02 C59.96 11.78, 60.04 12.95, 60.12 13.33 C60.19 13.72, 60.19 12.95, 60.12 13.33" stroke="transparent" stroke-width="4" fill="none"></path></g><g stroke-linecap="round" transform="translate(105.16778893849823 438.6000688466745) rotate(0 55.316589156417194 18.40069181858803)"><path d="M110.63 18.4 C110.63 19.27, 110.44 20.16, 110.07 21.02 C109.7 21.88, 109.13 22.75, 108.39 23.58 C107.65 24.42, 106.72 25.25, 105.63 26.04 C104.54 26.84, 103.27 27.61, 101.85 28.35 C100.43 29.08, 98.84 29.79, 97.12 30.45 C95.4 31.11, 93.52 31.74, 91.54 32.31 C89.56 32.88, 87.43 33.41, 85.22 33.88 C83.02 34.35, 80.68 34.78, 78.3 35.14 C75.91 35.5, 73.42 35.81, 70.9 36.06 C68.38 36.3, 65.79 36.49, 63.19 36.61 C60.59 36.74, 57.94 36.8, 55.32 36.8 C52.69 36.8, 50.04 36.74, 47.44 36.61 C44.85 36.49, 42.25 36.3, 39.73 36.06 C37.21 35.81, 34.72 35.5, 32.34 35.14 C29.95 34.78, 27.62 34.35, 25.41 33.88 C23.2 33.41, 21.08 32.88, 19.09 32.31 C17.11 31.74, 15.23 31.11, 13.51 30.45 C11.79 29.79, 10.2 29.08, 8.78 28.35 C7.36 27.61, 6.09 26.84, 5 26.04 C3.91 25.25, 2.98 24.42, 2.24 23.58 C1.5 22.75, 0.94 21.88, 0.56 21.02 C0.19 20.16, 0 19.27, 0 18.4 C0 17.53, 0.19 16.65, 0.56 15.78 C0.94 14.92, 1.5 14.05, 2.24 13.22 C2.98 12.38, 3.91 11.55, 5 10.76 C6.09 9.96, 7.36 9.19, 8.78 8.45 C10.2 7.72, 11.79 7.01, 13.51 6.35 C15.23 5.69, 17.11 5.07, 19.09 4.49 C21.08 3.92, 23.2 3.39, 25.41 2.92 C27.62 2.45, 29.95 2.03, 32.34 1.66 C34.72 1.3, 37.21 0.99, 39.73 0.75 C42.25 0.5, 44.85 0.31, 47.44 0.19 C50.04 0.06, 52.69 0, 55.32 0 C57.94 0, 60.59 0.06, 63.19 0.19 C65.79 0.31, 68.38 0.5, 70.9 0.75 C73.42 0.99, 75.91 1.3, 78.3 1.66 C80.68 2.03, 83.02 2.45, 85.22 2.92 C87.43 3.39, 89.56 3.92, 91.54 4.49 C93.52 5.07, 95.4 5.69, 97.12 6.35 C98.84 7.01, 100.43 7.72, 101.85 8.45 C103.27 9.19, 104.54 9.96, 105.63 10.76 C106.72 11.55, 107.65 12.38, 108.39 13.22 C109.13 14.05, 109.7 14.92, 110.07 15.78 C110.44 16.65, 110.54 17.96, 110.63 18.4 C110.73 18.84, 110.73 17.96, 110.63 18.4" stroke="none" stroke-width="0" fill="#099268"></path><path d="M110.63 18.4 C110.63 19.27, 110.44 20.16, 110.07 21.02 C109.7 21.88, 109.13 22.75, 108.39 23.58 C107.65 24.42, 106.72 25.25, 105.63 26.04 C104.54 26.84, 103.27 27.61, 101.85 28.35 C100.43 29.08, 98.84 29.79, 97.12 30.45 C95.4 31.11, 93.52 31.74, 91.54 32.31 C89.56 32.88, 87.43 33.41, 85.22 33.88 C83.02 34.35, 80.68 34.78, 78.3 35.14 C75.91 35.5, 73.42 35.81, 70.9 36.06 C68.38 36.3, 65.79 36.49, 63.19 36.61 C60.59 36.74, 57.94 36.8, 55.32 36.8 C52.69 36.8, 50.04 36.74, 47.44 36.61 C44.85 36.49, 42.25 36.3, 39.73 36.06 C37.21 35.81, 34.72 35.5, 32.34 35.14 C29.95 34.78, 27.62 34.35, 25.41 33.88 C23.2 33.41, 21.08 32.88, 19.09 32.31 C17.11 31.74, 15.23 31.11, 13.51 30.45 C11.79 29.79, 10.2 29.08, 8.78 28.35 C7.36 27.61, 6.09 26.84, 5 26.04 C3.91 25.25, 2.98 24.42, 2.24 23.58 C1.5 22.75, 0.94 21.88, 0.56 21.02 C0.19 20.16, 0 19.27, 0 18.4 C0 17.53, 0.19 16.65, 0.56 15.78 C0.94 14.92, 1.5 14.05, 2.24 13.22 C2.98 12.38, 3.91 11.55, 5 10.76 C6.09 9.96, 7.36 9.19, 8.78 8.45 C10.2 7.72, 11.79 7.01, 13.51 6.35 C15.23 5.69, 17.11 5.07, 19.09 4.49 C21.08 3.92, 23.2 3.39, 25.41 2.92 C27.62 2.45, 29.95 2.03, 32.34 1.66 C34.72 1.3, 37.21 0.99, 39.73 0.75 C42.25 0.5, 44.85 0.31, 47.44 0.19 C50.04 0.06, 52.69 0, 55.32 0 C57.94 0, 60.59 0.06, 63.19 0.19 C65.79 0.31, 68.38 0.5, 70.9 0.75 C73.42 0.99, 75.91 1.3, 78.3 1.66 C80.68 2.03, 83.02 2.45, 85.22 2.92 C87.43 3.39, 89.56 3.92, 91.54 4.49 C93.52 5.07, 95.4 5.69, 97.12 6.35 C98.84 7.01, 100.43 7.72, 101.85 8.45 C103.27 9.19, 104.54 9.96, 105.63 10.76 C106.72 11.55, 107.65 12.38, 108.39 13.22 C109.13 14.05, 109.7 14.92, 110.07 15.78 C110.44 16.65, 110.54 17.96, 110.63 18.4 C110.73 18.84, 110.73 17.96, 110.63 18.4" stroke="transparent" stroke-width="4" fill="none"></path></g><g stroke-linecap="round" transform="translate(121.333438348257 410.888147977186) rotate(37.97162489852486 13.895956656400813 27.92552367374276)"><path d="M0 0 L27.79 0 L27.79 55.85 L0 55.85" stroke="none" stroke-width="0" fill="#099268"></path><path d="M0 0 C6.01 0, 12.01 0, 27.79 0 M0 0 C6.49 0, 12.98 0, 27.79 0 M27.79 0 C27.79 16.06, 27.79 32.12, 27.79 55.85 M27.79 0 C27.79 20.86, 27.79 41.72, 27.79 55.85 M27.79 55.85 C18.96 55.85, 10.13 55.85, 0 55.85 M27.79 55.85 C17.66 55.85, 7.52 55.85, 0 55.85 M0 55.85 C0 42.24, 0 28.63, 0 0 M0 55.85 C0 44.31, 0 32.77, 0 0" stroke="transparent" stroke-width="4" fill="none"></path></g><g stroke-linecap="round" transform="translate(172.19618638205702 410.90723784146644) rotate(322.1992459742781 13.895956656400813 27.92552367374276)"><path d="M0 0 L27.79 0 L27.79 55.85 L0 55.85" stroke="none" stroke-width="0" fill="#099268"></path><path d="M0 0 C6.97 0, 13.94 0, 27.79 0 M0 0 C7.2 0, 14.41 0, 27.79 0 M27.79 0 C27.79 12.27, 27.79 24.55, 27.79 55.85 M27.79 0 C27.79 14.96, 27.79 29.92, 27.79 55.85 M27.79 55.85 C18.13 55.85, 8.48 55.85, 0 55.85 M27.79 55.85 C19.99 55.85, 12.19 55.85, 0 55.85 M0 55.85 C0 36.77, 0 17.68, 0 0 M0 55.85 C0 36.39, 0 16.92, 0 0" stroke="transparent" stroke-width="4" fill="none"></path></g><g stroke-linecap="round"><g transform="translate(318.9030759358611 282.8203156908638) rotate(0 -23.883583218680542 17.93764770124079)"><path d="M0 0 C-7.96 5.98, -39.81 29.9, -47.77 35.88" stroke="#2f9e44" stroke-width="4.5" fill="none" stroke-dasharray="8 12"></path></g><g transform="translate(318.9030759358611 282.8203156908638) rotate(0 -23.883583218680542 17.93764770124079)"><path d="M-47.77 35.88 L-40.7 22.64 L-33.09 32.78 L-47.77 35.88" stroke="none" stroke-width="0" fill="#2f9e44" fill-rule="evenodd"></path><path d="M-47.77 35.88 C-46.26 33.06, -44.76 30.25, -40.7 22.64 M-40.7 22.64 C-37.67 26.68, -34.65 30.71, -33.09 32.78 M-33.09 32.78 C-36.92 33.59, -40.75 34.4, -47.77 35.88 M-47.77 35.88 C-47.77 35.88, -47.77 35.88, -47.77 35.88" stroke="#2f9e44" stroke-width="4.5" fill="none"></path></g></g><mask></mask><g stroke-linecap="round" transform="translate(185.68837014003475 231.67746102904164) rotate(0 32.32383952697455 25.229286410116913)"><path d="M41.25 6.5 C46.52 11.02, 51.79 15.55, 56.4 19.5 C64.65 26, 64.65 26, 56.4 32.5 C50.4 37.04, 44.4 41.57, 41.25 43.96 C33 50.46, 33 50.46, 24.75 43.96 C20.22 40.81, 15.69 37.67, 8.25 32.5 C0 26, 0 26, 8.25 19.5 C14.53 14.55, 20.81 9.61, 24.75 6.5 C33 0, 33 0, 41.25 6.5" stroke="none" stroke-width="0" fill="#ffd43b"></path><path d="M41.25 6.5 C45.65 10.28, 50.05 14.05, 56.4 19.5 M41.25 6.5 C46.33 10.86, 51.42 15.23, 56.4 19.5 M56.4 19.5 C64.65 26, 64.65 26, 56.4 32.5 M56.4 19.5 C64.65 26, 64.65 26, 56.4 32.5 M56.4 32.5 C51.27 36.38, 46.15 40.25, 41.25 43.96 M56.4 32.5 C52.69 35.31, 48.98 38.11, 41.25 43.96 M41.25 43.96 C33 50.46, 33 50.46, 24.75 43.96 M41.25 43.96 C33 50.46, 33 50.46, 24.75 43.96 M24.75 43.96 C20.42 40.95, 16.09 37.95, 8.25 32.5 M24.75 43.96 C20.17 40.78, 15.59 37.6, 8.25 32.5 M8.25 32.5 C0 26, 0 26, 8.25 19.5 M8.25 32.5 C0 26, 0 26, 8.25 19.5 M8.25 19.5 C12.63 16.05, 17.02 12.59, 24.75 6.5 M8.25 19.5 C13.95 15.01, 19.65 10.51, 24.75 6.5 M24.75 6.5 C33 0, 33 0, 41.25 6.5 M24.75 6.5 C33 0, 33 0, 41.25 6.5" stroke="transparent" stroke-width="4" fill="none"></path></g><g stroke-linecap="round" transform="translate(187.6264715352645 230.9059664388045) rotate(0 30.408072587091738 13.14326214421095)"><path d="M0 0 L60.82 0 L60.82 26.29 L0 26.29" stroke="none" stroke-width="0" fill="#ffd43b"></path><path d="M0 0 C14.05 0, 28.11 0, 60.82 0 M0 0 C23.09 0, 46.19 0, 60.82 0 M60.82 0 C60.82 5.9, 60.82 11.8, 60.82 26.29 M60.82 0 C60.82 6.2, 60.82 12.4, 60.82 26.29 M60.82 26.29 C41.13 26.29, 21.44 26.29, 0 26.29 M60.82 26.29 C44.75 26.29, 28.69 26.29, 0 26.29 M0 26.29 C0 19.39, 0 12.49, 0 0 M0 26.29 C0 18.99, 0 11.7, 0 0" stroke="transparent" stroke-width="4" fill="none"></path></g><g stroke-linecap="round" transform="translate(185.73978978482592 205.3586750319472) rotate(0 32.41570467066185 25.49430612247869)"><path d="M41.25 6.5 C47.3 11.63, 53.35 16.76, 56.58 19.5 C64.83 26, 64.83 26, 56.58 32.5 C51.28 36.65, 45.98 40.79, 41.25 44.49 C33 50.99, 33 50.99, 24.75 44.49 C19.48 40.66, 14.22 36.84, 8.25 32.5 C0 26, 0 26, 8.25 19.5 C14.21 14.81, 20.16 10.12, 24.75 6.5 C33 0, 33 0, 41.25 6.5" stroke="none" stroke-width="0" fill="#ffec99"></path><path d="M41.25 6.5 C45.61 10.19, 49.96 13.89, 56.58 19.5 M41.25 6.5 C45.01 9.69, 48.78 12.88, 56.58 19.5 M56.58 19.5 C64.83 26, 64.83 26, 56.58 32.5 M56.58 19.5 C64.83 26, 64.83 26, 56.58 32.5 M56.58 32.5 C52.33 35.82, 48.08 39.15, 41.25 44.49 M56.58 32.5 C52.5 35.69, 48.43 38.88, 41.25 44.49 M41.25 44.49 C33 50.99, 33 50.99, 24.75 44.49 M41.25 44.49 C33 50.99, 33 50.99, 24.75 44.49 M24.75 44.49 C19.41 40.61, 14.06 36.72, 8.25 32.5 M24.75 44.49 C21 41.76, 17.25 39.04, 8.25 32.5 M8.25 32.5 C0 26, 0 26, 8.25 19.5 M8.25 32.5 C0 26, 0 26, 8.25 19.5 M8.25 19.5 C14.45 14.61, 20.66 9.72, 24.75 6.5 M8.25 19.5 C11.75 16.74, 15.24 13.99, 24.75 6.5 M24.75 6.5 C33 0, 33 0, 41.25 6.5 M24.75 6.5 C33 0, 33 0, 41.25 6.5" stroke="transparent" stroke-width="4" fill="none"></path></g><g stroke-linecap="round"><g transform="translate(312.89041916360475 257.4807505034296) rotate(0 -29.87020912615708 -5.836707078770473)"><path d="M0 0 C-9.96 -1.95, -49.78 -9.73, -59.74 -11.67" stroke="#2f9e44" stroke-width="4.5" fill="none" stroke-dasharray="8 12"></path></g><g transform="translate(312.89041916360475 257.4807505034296) rotate(0 -29.87020912615708 -5.836707078770473)"><path d="M-59.74 -11.67 L-45.18 -15.29 L-47.61 -2.84 L-59.74 -11.67" stroke="none" stroke-width="0" fill="#2f9e44" fill-rule="evenodd"></path><path d="M-59.74 -11.67 C-54.51 -12.97, -49.28 -14.27, -45.18 -15.29 M-45.18 -15.29 C-46 -11.1, -46.82 -6.92, -47.61 -2.84 M-47.61 -2.84 C-50.99 -5.31, -54.38 -7.77, -59.74 -11.67 M-59.74 -11.67 C-59.74 -11.67, -59.74 -11.67, -59.74 -11.67" stroke="#2f9e44" stroke-width="4.5" fill="none"></path></g></g><mask></mask><g stroke-linecap="round"><g transform="translate(376.06414059138024 250.61403937480839) rotate(0 64.89042540435548 -20.256803068317424)"><path d="M0 0 C21.63 -6.75, 108.15 -33.76, 129.78 -40.51" stroke="#e03131" stroke-width="4.5" fill="none" stroke-dasharray="8 12"></path></g><g transform="translate(376.06414059138024 250.61403937480839) rotate(0 64.89042540435548 -20.256803068317424)"><path d="M129.78 -40.51 L118.69 -30.41 L114.91 -42.51 L129.78 -40.51" stroke="none" stroke-width="0" fill="#e03131" fill-rule="evenodd"></path><path d="M129.78 -40.51 C126.94 -37.93, 124.1 -35.34, 118.69 -30.41 M118.69 -30.41 C117.72 -33.51, 116.76 -36.62, 114.91 -42.51 M114.91 -42.51 C119.48 -41.9, 124.04 -41.29, 129.78 -40.51 M129.78 -40.51 C129.78 -40.51, 129.78 -40.51, 129.78 -40.51" stroke="#e03131" stroke-width="4.5" fill="none"></path></g></g><mask></mask><g stroke-linecap="round"><g transform="translate(345.1639405125852 302.80103347456) rotate(0 -0.3433303175461333 86.17721942531159)"><path d="M0 0 C-0.11 28.73, -0.57 143.63, -0.69 172.35" stroke="#e03131" stroke-width="4.5" fill="none" stroke-dasharray="8 12"></path></g><g transform="translate(345.1639405125852 302.80103347456) rotate(0 -0.3433303175461333 86.17721942531159)"><path d="M-0.69 172.35 L-6.97 158.73 L5.71 158.79 L-0.69 172.35" stroke="none" stroke-width="0" fill="#e03131" fill-rule="evenodd"></path><path d="M-0.69 172.35 C-2.3 168.86, -3.91 165.37, -6.97 158.73 M-6.97 158.73 C-4.2 158.75, -1.44 158.76, 5.71 158.79 M5.71 158.79 C3.56 163.34, 1.41 167.9, -0.69 172.35 M-0.69 172.35 C-0.69 172.35, -0.69 172.35, -0.69 172.35" stroke="#e03131" stroke-width="4.5" fill="none"></path></g></g><mask></mask><g stroke-linecap="round" transform="translate(85.60452572503891 136.8391152333154) rotate(0 18.535672754761435 13.332682552154552)"><path d="M37.07 13.33 C37.07 14.1, 36.98 14.89, 36.79 15.65 C36.6 16.41, 36.32 17.17, 35.95 17.89 C35.59 18.62, 35.12 19.33, 34.59 20 C34.05 20.67, 33.42 21.31, 32.73 21.9 C32.05 22.49, 31.27 23.05, 30.45 23.55 C29.63 24.04, 28.73 24.49, 27.8 24.88 C26.87 25.26, 25.88 25.6, 24.88 25.86 C23.87 26.13, 22.81 26.33, 21.75 26.46 C20.7 26.6, 19.61 26.67, 18.54 26.67 C17.46 26.67, 16.37 26.6, 15.32 26.46 C14.26 26.33, 13.2 26.13, 12.2 25.86 C11.19 25.6, 10.2 25.26, 9.27 24.88 C8.34 24.49, 7.44 24.04, 6.62 23.55 C5.8 23.05, 5.03 22.49, 4.34 21.9 C3.65 21.31, 3.02 20.67, 2.48 20 C1.95 19.33, 1.48 18.62, 1.12 17.89 C0.75 17.17, 0.47 16.41, 0.28 15.65 C0.1 14.89, 0 14.1, 0 13.33 C0 12.56, 0.1 11.78, 0.28 11.02 C0.47 10.26, 0.75 9.5, 1.12 8.77 C1.48 8.05, 1.95 7.33, 2.48 6.67 C3.02 6, 3.65 5.35, 4.34 4.76 C5.03 4.17, 5.8 3.62, 6.62 3.12 C7.44 2.62, 8.34 2.17, 9.27 1.79 C10.2 1.4, 11.19 1.07, 12.2 0.8 C13.2 0.54, 14.26 0.34, 15.32 0.2 C16.37 0.07, 17.46 0, 18.54 0 C19.61 0, 20.7 0.07, 21.75 0.2 C22.81 0.34, 23.87 0.54, 24.88 0.8 C25.88 1.07, 26.87 1.4, 27.8 1.79 C28.73 2.17, 29.63 2.62, 30.45 3.12 C31.27 3.62, 32.05 4.17, 32.73 4.76 C33.42 5.35, 34.05 6, 34.59 6.67 C35.12 7.33, 35.59 8.05, 35.95 8.77 C36.32 9.5, 36.6 10.26, 36.79 11.02 C36.98 11.78, 37.02 12.95, 37.07 13.33 C37.12 13.72, 37.12 12.95, 37.07 13.33" stroke="none" stroke-width="0" fill="#685c53"></path><path d="M37.07 13.33 C37.07 14.1, 36.98 14.89, 36.79 15.65 C36.6 16.41, 36.32 17.17, 35.95 17.89 C35.59 18.62, 35.12 19.33, 34.59 20 C34.05 20.67, 33.42 21.31, 32.73 21.9 C32.05 22.49, 31.27 23.05, 30.45 23.55 C29.63 24.04, 28.73 24.49, 27.8 24.88 C26.87 25.26, 25.88 25.6, 24.88 25.86 C23.87 26.13, 22.81 26.33, 21.75 26.46 C20.7 26.6, 19.61 26.67, 18.54 26.67 C17.46 26.67, 16.37 26.6, 15.32 26.46 C14.26 26.33, 13.2 26.13, 12.2 25.86 C11.19 25.6, 10.2 25.26, 9.27 24.88 C8.34 24.49, 7.44 24.04, 6.62 23.55 C5.8 23.05, 5.03 22.49, 4.34 21.9 C3.65 21.31, 3.02 20.67, 2.48 20 C1.95 19.33, 1.48 18.62, 1.12 17.89 C0.75 17.17, 0.47 16.41, 0.28 15.65 C0.1 14.89, 0 14.1, 0 13.33 C0 12.56, 0.1 11.78, 0.28 11.02 C0.47 10.26, 0.75 9.5, 1.12 8.77 C1.48 8.05, 1.95 7.33, 2.48 6.67 C3.02 6, 3.65 5.35, 4.34 4.76 C5.03 4.17, 5.8 3.62, 6.62 3.12 C7.44 2.62, 8.34 2.17, 9.27 1.79 C10.2 1.4, 11.19 1.07, 12.2 0.8 C13.2 0.54, 14.26 0.34, 15.32 0.2 C16.37 0.07, 17.46 0, 18.54 0 C19.61 0, 20.7 0.07, 21.75 0.2 C22.81 0.34, 23.87 0.54, 24.88 0.8 C25.88 1.07, 26.87 1.4, 27.8 1.79 C28.73 2.17, 29.63 2.62, 30.45 3.12 C31.27 3.62, 32.05 4.17, 32.73 4.76 C33.42 5.35, 34.05 6, 34.59 6.67 C35.12 7.33, 35.59 8.05, 35.95 8.77 C36.32 9.5, 36.6 10.26, 36.79 11.02 C36.98 11.78, 37.02 12.95, 37.07 13.33 C37.12 13.72, 37.12 12.95, 37.07 13.33" stroke="transparent" stroke-width="4" fill="none"></path></g><g stroke-linecap="round" transform="translate(85.60452563552462 79.88437937876574) rotate(0 18.535672767029155 35.14370915542872)"><path d="M0 0 L37.07 0 L37.07 70.29 L0 70.29" stroke="none" stroke-width="0" fill="#685c53"></path><path d="M0 0 C11.4 0, 22.8 0, 37.07 0 M0 0 C8.44 0, 16.88 0, 37.07 0 M37.07 0 C37.07 15.93, 37.07 31.85, 37.07 70.29 M37.07 0 C37.07 25.4, 37.07 50.8, 37.07 70.29 M37.07 70.29 C29.64 70.29, 22.2 70.29, 0 70.29 M37.07 70.29 C26.09 70.29, 15.11 70.29, 0 70.29 M0 70.29 C0 44.47, 0 18.65, 0 0 M0 70.29 C0 54.06, 0 37.83, 0 0" stroke="transparent" stroke-width="4" fill="none"></path></g><g stroke-linecap="round" transform="translate(51.29793802182394 40.4152565951465) rotate(0 53.2871367579487 47.300389450484886)"><path d="M67.5 12 C73.01 17.17, 78.51 22.34, 93.07 36 C106.57 48, 106.57 48, 93.07 60 C84.33 67.73, 75.58 75.46, 67.5 82.6 C54 94.6, 54 94.6, 40.5 82.6 C33.07 76.38, 25.63 70.15, 13.5 60 C0 48, 0 48, 13.5 36 C22.2 28.26, 30.91 20.53, 40.5 12 C54 0, 54 0, 67.5 12" stroke="none" stroke-width="0" fill="#099268"></path><path d="M67.5 12 C75.18 19.21, 82.86 26.42, 93.07 36 M67.5 12 C73.85 17.96, 80.19 23.91, 93.07 36 M93.07 36 C106.57 48, 106.57 48, 93.07 60 M93.07 36 C106.57 48, 106.57 48, 93.07 60 M93.07 60 C84.42 67.65, 75.77 75.29, 67.5 82.6 M93.07 60 C87.37 65.04, 81.66 70.09, 67.5 82.6 M67.5 82.6 C54 94.6, 54 94.6, 40.5 82.6 M67.5 82.6 C54 94.6, 54 94.6, 40.5 82.6 M40.5 82.6 C32.34 75.77, 24.18 68.94, 13.5 60 M40.5 82.6 C29.88 73.71, 19.25 64.81, 13.5 60 M13.5 60 C0 48, 0 48, 13.5 36 M13.5 60 C0 48, 0 48, 13.5 36 M13.5 36 C23.12 27.45, 32.74 18.9, 40.5 12 M13.5 36 C19.57 30.61, 25.64 25.21, 40.5 12 M40.5 12 C54 0, 54 0, 67.5 12 M40.5 12 C54 0, 54 0, 67.5 12" stroke="transparent" stroke-width="4" fill="none"></path></g><g stroke-linecap="round" transform="translate(66.30680573022437 11.903436711493896) rotate(0 38.89447758132519 43.01685682117932)"><path d="M48.75 11 C53.21 16.08, 57.67 21.17, 68.04 33 C77.79 44, 77.79 44, 68.04 55 C62.97 60.26, 57.91 65.52, 48.75 75.03 C39 86.03, 39 86.03, 29.25 75.03 C23.57 69.2, 17.89 63.36, 9.75 55 C0 44, 0 44, 9.75 33 C17.38 24.4, 25 15.79, 29.25 11 C39 0, 39 0, 48.75 11" stroke="none" stroke-width="0" fill="#099268"></path><path d="M48.75 11 C56.38 19.71, 64.02 28.41, 68.04 33 M48.75 11 C54.17 17.18, 59.59 23.37, 68.04 33 M68.04 33 C77.79 44, 77.79 44, 68.04 55 M68.04 33 C77.79 44, 77.79 44, 68.04 55 M68.04 55 C61.09 62.22, 54.14 69.44, 48.75 75.03 M68.04 55 C61.99 61.29, 55.94 67.57, 48.75 75.03 M48.75 75.03 C39 86.03, 39 86.03, 29.25 75.03 M48.75 75.03 C39 86.03, 39 86.03, 29.25 75.03 M29.25 75.03 C22.68 68.28, 16.1 61.52, 9.75 55 M29.25 75.03 C24.22 69.87, 19.19 64.7, 9.75 55 M9.75 55 C0 44, 0 44, 9.75 33 M9.75 55 C0 44, 0 44, 9.75 33 M9.75 33 C13.96 28.25, 18.18 23.49, 29.25 11 M9.75 33 C15.49 26.53, 21.22 20.05, 29.25 11 M29.25 11 C39 0, 39 0, 48.75 11 M29.25 11 C39 0, 39 0, 48.75 11" stroke="transparent" stroke-width="4" fill="none"></path></g><g stroke-linecap="round" transform="translate(74.59920684543067 115.93631389151801) rotate(0 30.057791206319052 13.332682552154552)"><path d="M60.12 13.33 C60.12 14.1, 59.96 14.89, 59.66 15.65 C59.36 16.41, 58.9 17.17, 58.3 17.89 C57.71 18.62, 56.96 19.33, 56.09 20 C55.22 20.67, 54.2 21.31, 53.08 21.9 C51.97 22.49, 50.71 23.05, 49.38 23.55 C48.05 24.04, 46.59 24.49, 45.09 24.88 C43.58 25.26, 41.97 25.6, 40.34 25.86 C38.7 26.13, 36.99 26.33, 35.28 26.46 C33.56 26.6, 31.8 26.67, 30.06 26.67 C28.32 26.67, 26.55 26.6, 24.84 26.46 C23.12 26.33, 21.41 26.13, 19.78 25.86 C18.14 25.6, 16.54 25.26, 15.03 24.88 C13.52 24.49, 12.07 24.04, 10.74 23.55 C9.4 23.05, 8.15 22.49, 7.03 21.9 C5.91 21.31, 4.9 20.67, 4.03 20 C3.16 19.33, 2.41 18.62, 1.81 17.89 C1.22 17.17, 0.76 16.41, 0.46 15.65 C0.15 14.89, 0 14.1, 0 13.33 C0 12.56, 0.15 11.78, 0.46 11.02 C0.76 10.26, 1.22 9.5, 1.81 8.77 C2.41 8.05, 3.16 7.33, 4.03 6.67 C4.9 6, 5.91 5.35, 7.03 4.76 C8.15 4.17, 9.4 3.62, 10.74 3.12 C12.07 2.62, 13.52 2.17, 15.03 1.79 C16.54 1.4, 18.14 1.07, 19.78 0.8 C21.41 0.54, 23.12 0.34, 24.84 0.2 C26.55 0.07, 28.32 0, 30.06 0 C31.8 0, 33.56 0.07, 35.28 0.2 C36.99 0.34, 38.7 0.54, 40.34 0.8 C41.97 1.07, 43.58 1.4, 45.09 1.79 C46.59 2.17, 48.05 2.62, 49.38 3.12 C50.71 3.62, 51.97 4.17, 53.08 4.76 C54.2 5.35, 55.22 6, 56.09 6.67 C56.96 7.33, 57.71 8.05, 58.3 8.77 C58.9 9.5, 59.36 10.26, 59.66 11.02 C59.96 11.78, 60.04 12.95, 60.12 13.33 C60.19 13.72, 60.19 12.95, 60.12 13.33" stroke="none" stroke-width="0" fill="#4f4141"></path><path d="M60.12 13.33 C60.12 14.1, 59.96 14.89, 59.66 15.65 C59.36 16.41, 58.9 17.17, 58.3 17.89 C57.71 18.62, 56.96 19.33, 56.09 20 C55.22 20.67, 54.2 21.31, 53.08 21.9 C51.97 22.49, 50.71 23.05, 49.38 23.55 C48.05 24.04, 46.59 24.49, 45.09 24.88 C43.58 25.26, 41.97 25.6, 40.34 25.86 C38.7 26.13, 36.99 26.33, 35.28 26.46 C33.56 26.6, 31.8 26.67, 30.06 26.67 C28.32 26.67, 26.55 26.6, 24.84 26.46 C23.12 26.33, 21.41 26.13, 19.78 25.86 C18.14 25.6, 16.54 25.26, 15.03 24.88 C13.52 24.49, 12.07 24.04, 10.74 23.55 C9.4 23.05, 8.15 22.49, 7.03 21.9 C5.91 21.31, 4.9 20.67, 4.03 20 C3.16 19.33, 2.41 18.62, 1.81 17.89 C1.22 17.17, 0.76 16.41, 0.46 15.65 C0.15 14.89, 0 14.1, 0 13.33 C0 12.56, 0.15 11.78, 0.46 11.02 C0.76 10.26, 1.22 9.5, 1.81 8.77 C2.41 8.05, 3.16 7.33, 4.03 6.67 C4.9 6, 5.91 5.35, 7.03 4.76 C8.15 4.17, 9.4 3.62, 10.74 3.12 C12.07 2.62, 13.52 2.17, 15.03 1.79 C16.54 1.4, 18.14 1.07, 19.78 0.8 C21.41 0.54, 23.12 0.34, 24.84 0.2 C26.55 0.07, 28.32 0, 30.06 0 C31.8 0, 33.56 0.07, 35.28 0.2 C36.99 0.34, 38.7 0.54, 40.34 0.8 C41.97 1.07, 43.58 1.4, 45.09 1.79 C46.59 2.17, 48.05 2.62, 49.38 3.12 C50.71 3.62, 51.97 4.17, 53.08 4.76 C54.2 5.35, 55.22 6, 56.09 6.67 C56.96 7.33, 57.71 8.05, 58.3 8.77 C58.9 9.5, 59.36 10.26, 59.66 11.02 C59.96 11.78, 60.04 12.95, 60.12 13.33 C60.19 13.72, 60.19 12.95, 60.12 13.33" stroke="transparent" stroke-width="4" fill="none"></path></g><g stroke-linecap="round" transform="translate(49.20535226076572 103.64746076361803) rotate(0 55.316589156417194 18.40069181858803)"><path d="M110.63 18.4 C110.63 19.27, 110.44 20.16, 110.07 21.02 C109.7 21.88, 109.13 22.75, 108.39 23.58 C107.65 24.42, 106.72 25.25, 105.63 26.04 C104.54 26.84, 103.27 27.61, 101.85 28.35 C100.43 29.08, 98.84 29.79, 97.12 30.45 C95.4 31.11, 93.52 31.74, 91.54 32.31 C89.56 32.88, 87.43 33.41, 85.22 33.88 C83.02 34.35, 80.68 34.78, 78.3 35.14 C75.91 35.5, 73.42 35.81, 70.9 36.06 C68.38 36.3, 65.79 36.49, 63.19 36.61 C60.59 36.74, 57.94 36.8, 55.32 36.8 C52.69 36.8, 50.04 36.74, 47.44 36.61 C44.85 36.49, 42.25 36.3, 39.73 36.06 C37.21 35.81, 34.72 35.5, 32.34 35.14 C29.95 34.78, 27.62 34.35, 25.41 33.88 C23.2 33.41, 21.08 32.88, 19.09 32.31 C17.11 31.74, 15.23 31.11, 13.51 30.45 C11.79 29.79, 10.2 29.08, 8.78 28.35 C7.36 27.61, 6.09 26.84, 5 26.04 C3.91 25.25, 2.98 24.42, 2.24 23.58 C1.5 22.75, 0.94 21.88, 0.56 21.02 C0.19 20.16, 0 19.27, 0 18.4 C0 17.53, 0.19 16.65, 0.56 15.78 C0.94 14.92, 1.5 14.05, 2.24 13.22 C2.98 12.38, 3.91 11.55, 5 10.76 C6.09 9.96, 7.36 9.19, 8.78 8.45 C10.2 7.72, 11.79 7.01, 13.51 6.35 C15.23 5.69, 17.11 5.07, 19.09 4.49 C21.08 3.92, 23.2 3.39, 25.41 2.92 C27.62 2.45, 29.95 2.03, 32.34 1.66 C34.72 1.3, 37.21 0.99, 39.73 0.75 C42.25 0.5, 44.85 0.31, 47.44 0.19 C50.04 0.06, 52.69 0, 55.32 0 C57.94 0, 60.59 0.06, 63.19 0.19 C65.79 0.31, 68.38 0.5, 70.9 0.75 C73.42 0.99, 75.91 1.3, 78.3 1.66 C80.68 2.03, 83.02 2.45, 85.22 2.92 C87.43 3.39, 89.56 3.92, 91.54 4.49 C93.52 5.07, 95.4 5.69, 97.12 6.35 C98.84 7.01, 100.43 7.72, 101.85 8.45 C103.27 9.19, 104.54 9.96, 105.63 10.76 C106.72 11.55, 107.65 12.38, 108.39 13.22 C109.13 14.05, 109.7 14.92, 110.07 15.78 C110.44 16.65, 110.54 17.96, 110.63 18.4 C110.73 18.84, 110.73 17.96, 110.63 18.4" stroke="none" stroke-width="0" fill="#099268"></path><path d="M110.63 18.4 C110.63 19.27, 110.44 20.16, 110.07 21.02 C109.7 21.88, 109.13 22.75, 108.39 23.58 C107.65 24.42, 106.72 25.25, 105.63 26.04 C104.54 26.84, 103.27 27.61, 101.85 28.35 C100.43 29.08, 98.84 29.79, 97.12 30.45 C95.4 31.11, 93.52 31.74, 91.54 32.31 C89.56 32.88, 87.43 33.41, 85.22 33.88 C83.02 34.35, 80.68 34.78, 78.3 35.14 C75.91 35.5, 73.42 35.81, 70.9 36.06 C68.38 36.3, 65.79 36.49, 63.19 36.61 C60.59 36.74, 57.94 36.8, 55.32 36.8 C52.69 36.8, 50.04 36.74, 47.44 36.61 C44.85 36.49, 42.25 36.3, 39.73 36.06 C37.21 35.81, 34.72 35.5, 32.34 35.14 C29.95 34.78, 27.62 34.35, 25.41 33.88 C23.2 33.41, 21.08 32.88, 19.09 32.31 C17.11 31.74, 15.23 31.11, 13.51 30.45 C11.79 29.79, 10.2 29.08, 8.78 28.35 C7.36 27.61, 6.09 26.84, 5 26.04 C3.91 25.25, 2.98 24.42, 2.24 23.58 C1.5 22.75, 0.94 21.88, 0.56 21.02 C0.19 20.16, 0 19.27, 0 18.4 C0 17.53, 0.19 16.65, 0.56 15.78 C0.94 14.92, 1.5 14.05, 2.24 13.22 C2.98 12.38, 3.91 11.55, 5 10.76 C6.09 9.96, 7.36 9.19, 8.78 8.45 C10.2 7.72, 11.79 7.01, 13.51 6.35 C15.23 5.69, 17.11 5.07, 19.09 4.49 C21.08 3.92, 23.2 3.39, 25.41 2.92 C27.62 2.45, 29.95 2.03, 32.34 1.66 C34.72 1.3, 37.21 0.99, 39.73 0.75 C42.25 0.5, 44.85 0.31, 47.44 0.19 C50.04 0.06, 52.69 0, 55.32 0 C57.94 0, 60.59 0.06, 63.19 0.19 C65.79 0.31, 68.38 0.5, 70.9 0.75 C73.42 0.99, 75.91 1.3, 78.3 1.66 C80.68 2.03, 83.02 2.45, 85.22 2.92 C87.43 3.39, 89.56 3.92, 91.54 4.49 C93.52 5.07, 95.4 5.69, 97.12 6.35 C98.84 7.01, 100.43 7.72, 101.85 8.45 C103.27 9.19, 104.54 9.96, 105.63 10.76 C106.72 11.55, 107.65 12.38, 108.39 13.22 C109.13 14.05, 109.7 14.92, 110.07 15.78 C110.44 16.65, 110.54 17.96, 110.63 18.4 C110.73 18.84, 110.73 17.96, 110.63 18.4" stroke="transparent" stroke-width="4" fill="none"></path></g><g stroke-linecap="round" transform="translate(65.37100167052449 75.93553989412953) rotate(37.97162489852486 13.895956656400813 27.92552367374276)"><path d="M0 0 L27.79 0 L27.79 55.85 L0 55.85" stroke="none" stroke-width="0" fill="#099268"></path><path d="M0 0 C10.5 0, 20.99 0, 27.79 0 M0 0 C8.29 0, 16.57 0, 27.79 0 M27.79 0 C27.79 17.18, 27.79 34.36, 27.79 55.85 M27.79 0 C27.79 18.74, 27.79 37.48, 27.79 55.85 M27.79 55.85 C17.66 55.85, 7.52 55.85, 0 55.85 M27.79 55.85 C18.7 55.85, 9.61 55.85, 0 55.85 M0 55.85 C0 37.43, 0 19.02, 0 0 M0 55.85 C0 36.78, 0 17.72, 0 0" stroke="transparent" stroke-width="4" fill="none"></path></g><g stroke-linecap="round" transform="translate(116.23374970432633 75.95462975840996) rotate(322.1992459742781 13.895956656400813 27.92552367374276)"><path d="M0 0 L27.79 0 L27.79 55.85 L0 55.85" stroke="none" stroke-width="0" fill="#099268"></path><path d="M0 0 C6.39 0, 12.77 0, 27.79 0 M0 0 C8.55 0, 17.09 0, 27.79 0 M27.79 0 C27.79 18.9, 27.79 37.79, 27.79 55.85 M27.79 0 C27.79 12.46, 27.79 24.93, 27.79 55.85 M27.79 55.85 C19.57 55.85, 11.35 55.85, 0 55.85 M27.79 55.85 C16.82 55.85, 5.84 55.85, 0 55.85 M0 55.85 C0 37.19, 0 18.52, 0 0 M0 55.85 C0 40.89, 0 25.92, 0 0" stroke="transparent" stroke-width="4" fill="none"></path></g></svg>